<?xml version="1.0" standalone="no"?><!DOCTYPE svg PUBLIC "-//W3C//DTD SVG 1.1//EN" "http://www.w3.org/Graphics/SVG/1.1/DTD/svg11.dtd"><svg height="1024" node-id="1" sillyvg="true" template-height="1024" template-width="1024" version="1.1" viewBox="0 0 1024 1024" width="1024" xmlns="http://www.w3.org/2000/svg" xmlns:xlink="http://www.w3.org/1999/xlink"><defs node-id="96"></defs><g node-id="298"><path d="M 578.20 189.50 L 818.70 125.60 L 665.60 208.80 Z" fill="#bad6f7" fill-rule="nonzero" group-id="1" node-id="100" stroke="none" target-height="83.200005" target-width="240.5" target-x="578.2" target-y="125.6"></path></g><path d="M 665.60 208.80 L 707.30 275.40 L 702.10 207.90 L 818.70 125.60 Z" fill="#b2c7db" fill-rule="nonzero" node-id="103" stroke="none" target-height="149.79999" target-width="153.10004" target-x="665.6" target-y="125.6"></path><g node-id="299"><path d="M 777.70 253.40 L 702.10 207.90 L 818.70 125.60 Z" fill="#bad6f7" fill-rule="nonzero" group-id="2" node-id="107" stroke="none" target-height="127.799995" target-width="116.60004" target-x="702.1" target-y="125.6"></path></g><g node-id="300"><path d="M 707.30 275.40 L 744.50 233.30 L 702.10 207.90 Z" fill="#ffffff" fill-rule="nonzero" group-id="3" node-id="112" stroke="none" target-height="67.5" target-width="42.400024" target-x="702.1" target-y="207.9"></path></g><path d="M 707.30 275.40 L 744.50 233.30 L 702.10 207.90 Z" fill="#8cb6f4" fill-rule="nonzero" node-id="115" stroke="none" target-height="67.5" target-width="42.400024" target-x="702.1" target-y="207.9"></path><path d="M 327.90 817.10 L 311.10 810.90 L 314.80 800.40 L 331.20 806.40 L 327.90 817.10 Z" fill="#b2c7db" fill-rule="nonzero" node-id="117" stroke="none" target-height="16.699951" target-width="20.100006" target-x="311.1" target-y="800.4"></path><path d="M 278.40 796.30 L 262.70 787.90 L 267.70 777.80 L 283.00 786.20 L 278.40 796.30 Z" fill="#b2c7db" fill-rule="nonzero" node-id="119" stroke="none" target-height="18.5" target-width="20.299988" target-x="262.7" target-y="777.8"></path><path d="M 703.30 789.40 L 685.60 789.40 L 685.60 778.20 L 703.00 778.70 Z" fill="#b2c7db" fill-rule="nonzero" node-id="121" stroke="none" target-height="11.200012" target-width="17.700012" target-x="685.6" target-y="778.2"></path><path d="M 738.70 788.70 L 738.10 777.60 L 755.40 776.30 L 756.30 787.40 L 738.70 788.70 Z" fill="#b2c7db" fill-rule="nonzero" node-id="123" stroke="none" target-height="12.400024" target-width="18.200012" target-x="738.1" target-y="776.3"></path><path d="M 650.40 786.10 L 632.80 784.20 L 634.00 773.10 L 651.30 775.00 L 650.40 786.10 Z" fill="#b2c7db" fill-rule="nonzero" node-id="125" stroke="none" target-height="13" target-width="18.5" target-x="632.8" target-y="773.1"></path><path d="M 792.00 782.10 L 790.20 771.10 L 807.10 767.40 L 809.50 778.30 L 800.60 780.60 L 791.70 782.40 L 792.00 782.10 Z" fill="#b2c7db" fill-rule="nonzero" node-id="127" stroke="none" target-height="15" target-width="19.299988" target-x="790.2" target-y="767.4"></path><path d="M 843.70 767.40 L 840.00 757.00 L 855.70 749.90 L 860.30 760.00 L 851.90 764.20 L 843.40 767.80 L 843.70 767.40 Z" fill="#b2c7db" fill-rule="nonzero" node-id="129" stroke="none" target-height="17.899963" target-width="20.299988" target-x="840" target-y="749.9"></path><path d="M 231.80 765.90 L 224.90 759.60 L 218.40 752.80 L 226.30 745.10 L 232.40 751.40 L 238.70 757.20 L 231.80 765.90 Z" fill="#b2c7db" fill-rule="nonzero" node-id="131" stroke="none" target-height="20.800049" target-width="20.300003" target-x="218.4" target-y="745.1"></path><path d="M 891.20 739.90 L 884.70 731.00 L 892.60 723.80 L 897.10 719.10 L 904.40 727.10 L 897.60 734.20 L 891.20 739.90 Z" fill="#b2c7db" fill-rule="nonzero" node-id="133" stroke="none" target-height="20.800049" target-width="19.700012" target-x="884.7" target-y="719.1"></path><path d="M 198.70 720.80 L 196.20 714.80 L 194.10 708.70 L 192.40 702.40 L 202.60 700.00 L 204.00 705.70 L 205.70 711.30 L 207.90 716.80 L 198.70 720.80 Z" fill="#b2c7db" fill-rule="nonzero" node-id="135" stroke="none" target-height="20.799988" target-width="15.5" target-x="192.4" target-y="700"></path><path d="M 394.70 718.10 L 377.80 710.70 L 382.10 700.50 L 397.80 707.70 L 394.70 718.10 Z" fill="#b2c7db" fill-rule="nonzero" node-id="137" stroke="none" target-height="17.599976" target-width="20" target-x="377.8" target-y="700.5"></path><path d="M 928.30 698.10 L 919.70 691.60 L 924.30 684.10 L 928.40 676.40 L 937.70 681.50 L 934.70 687.30 L 928.30 698.10 Z" fill="#b2c7db" fill-rule="nonzero" node-id="139" stroke="none" target-height="21.699951" target-width="18" target-x="919.7" target-y="676.4"></path><path d="M 346.00 694.90 L 330.30 686.50 L 335.00 677.20 L 350.70 685.60 L 346.00 694.90 Z" fill="#b2c7db" fill-rule="nonzero" node-id="141" stroke="none" target-height="17.700012" target-width="20.400024" target-x="330.3" target-y="677.2"></path><path d="M 299.10 668.90 L 284.00 659.10 L 289.60 649.60 L 304.50 659.30 L 299.10 668.90 Z" fill="#b2c7db" fill-rule="nonzero" node-id="143" stroke="none" target-height="19.300049" target-width="20.5" target-x="284" target-y="649.6"></path><path d="M 202.30 665.60 L 192.00 663.50 L 193.40 657.10 L 197.00 644.70 L 206.80 648.60 L 204.30 656.80 L 202.30 665.60 Z" fill="#b2c7db" fill-rule="nonzero" node-id="145" stroke="none" target-height="20.899963" target-width="14.800003" target-x="192" target-y="644.7"></path><path d="M 948.20 644.90 L 937.70 643.70 L 938.20 635.30 L 937.70 626.90 L 948.20 625.70 L 948.70 635.50 L 948.20 644.90 Z" fill="#b2c7db" fill-rule="nonzero" node-id="147" stroke="none" target-height="19.200012" target-width="11" target-x="937.7" target-y="625.7"></path><path d="M 254.60 638.00 L 240.40 626.60 L 246.90 617.80 L 260.80 628.90 L 254.60 638.00 Z" fill="#b2c7db" fill-rule="nonzero" node-id="149" stroke="none" target-height="20.200012" target-width="20.399994" target-x="240.4" target-y="617.8"></path><path d="M 222.70 616.50 L 214.00 610.30 L 224.80 595.00 L 232.70 602.00 L 222.70 616.50 Z" fill="#b2c7db" fill-rule="nonzero" node-id="151" stroke="none" target-height="21.5" target-width="18.699997" target-x="214" target-y="595"></path><path d="M 213.60 601.90 L 200.90 588.60 L 208.80 580.80 L 221.10 593.80 L 213.60 601.90 Z" fill="#b2c7db" fill-rule="nonzero" node-id="153" stroke="none" target-height="21.100037" target-width="20.200012" target-x="200.9" target-y="580.8"></path><path d="M 928.00 592.90 L 925.30 587.70 L 919.10 577.80 L 927.60 571.20 L 934.30 582.20 L 937.30 588.00 L 928.00 592.90 Z" fill="#b2c7db" fill-rule="nonzero" node-id="155" stroke="none" target-height="21.700012" target-width="18.200012" target-x="919.1" target-y="571.2"></path><path d="M 256.50 575.40 L 249.30 567.00 L 262.70 554.40 L 269.40 562.80 L 256.50 575.40 Z" fill="#b2c7db" fill-rule="nonzero" node-id="157" stroke="none" target-height="21" target-width="20.09999" target-x="249.3" target-y="554.4"></path><path d="M 177.80 559.30 L 167.60 543.50 L 176.50 537.60 L 181.10 545.10 L 186.20 552.60 L 177.80 559.30 Z" fill="#b2c7db" fill-rule="nonzero" node-id="159" stroke="none" target-height="21.700012" target-width="18.59999" target-x="167.6" target-y="537.6"></path><path d="M 896.20 550.90 L 890.00 545.10 L 883.10 539.20 L 889.60 530.80 L 903.30 543.10 L 896.20 550.90 Z" fill="#b2c7db" fill-rule="nonzero" node-id="161" stroke="none" target-height="20.100037" target-width="20.200012" target-x="883.1" target-y="530.8"></path><path d="M 297.00 540.90 L 291.30 531.70 L 306.10 521.20 L 311.80 530.70 L 297.00 540.90 Z" fill="#b2c7db" fill-rule="nonzero" node-id="163" stroke="none" target-height="19.700012" target-width="20.5" target-x="291.3" target-y="521.2"></path><path d="M 854.70 518.20 L 839.70 508.90 L 844.80 499.10 L 860.20 508.70 L 854.70 518.20 Z" fill="#b2c7db" fill-rule="nonzero" node-id="165" stroke="none" target-height="19.100006" target-width="20.5" target-x="839.7" target-y="499.1"></path><path d="M 341.30 512.00 L 336.30 502.20 L 352.00 493.80 L 356.70 503.90 L 349.00 507.60 L 341.30 512.00 Z" fill="#b2c7db" fill-rule="nonzero" node-id="167" stroke="none" target-height="18.200012" target-width="20.400024" target-x="336.3" target-y="493.8"></path><path d="M 151.20 509.80 L 148.10 500.70 L 145.50 491.50 L 155.70 488.60 L 158.20 497.10 L 161.10 505.40 L 151.20 509.80 Z" fill="#b2c7db" fill-rule="nonzero" node-id="169" stroke="none" target-height="21.199982" target-width="15.600006" target-x="145.5" target-y="488.6"></path><path d="M 808.90 492.30 L 793.20 484.80 L 797.30 474.50 L 813.50 482.10 L 808.90 492.30 Z" fill="#b2c7db" fill-rule="nonzero" node-id="171" stroke="none" target-height="17.799988" target-width="20.299988" target-x="793.2" target-y="474.5"></path><path d="M 388.30 488.00 L 384.20 477.70 L 392.40 474.10 L 400.60 470.60 L 404.50 481.00 L 396.40 484.20 L 388.30 488.00 Z" fill="#b2c7db" fill-rule="nonzero" node-id="173" stroke="none" target-height="17.399994" target-width="20.299988" target-x="384.2" target-y="470.6"></path><path d="M 760.60 471.30 L 744.10 465.40 L 747.30 454.80 L 764.10 460.80 L 760.60 471.30 Z" fill="#b2c7db" fill-rule="nonzero" node-id="175" stroke="none" target-height="16.5" target-width="20" target-x="744.1" target-y="454.8"></path><path d="M 437.20 467.90 L 433.90 457.30 L 450.90 451.70 L 453.90 462.40 L 437.20 467.90 Z" fill="#b2c7db" fill-rule="nonzero" node-id="177" stroke="none" target-height="16.199982" target-width="20" target-x="433.9" target-y="451.7"></path><path d="M 710.60 454.60 L 693.70 450.20 L 696.10 439.30 L 713.30 443.70 L 710.60 454.60 Z" fill="#b2c7db" fill-rule="nonzero" node-id="179" stroke="none" target-height="15.300018" target-width="19.599976" target-x="693.7" target-y="439.3"></path><path d="M 140.20 453.00 L 140.20 433.90 L 150.70 434.40 L 150.70 452.50 Z" fill="#b2c7db" fill-rule="nonzero" node-id="181" stroke="none" target-height="19.100006" target-width="10.5" target-x="140.2" target-y="433.9"></path><path d="M 487.40 453.00 L 485.00 442.80 L 502.30 438.80 L 504.30 449.80 L 487.40 453.00 Z" fill="#b2c7db" fill-rule="nonzero" node-id="183" stroke="none" target-height="14.200012" target-width="19.299988" target-x="485" target-y="438.8"></path><path d="M 659.60 443.30 L 642.60 441.50 L 643.70 430.40 L 661.30 432.90 Z" fill="#b2c7db" fill-rule="nonzero" node-id="185" stroke="none" target-height="12.899994" target-width="18.700012" target-x="642.6" target-y="430.4"></path><path d="M 538.70 443.30 L 537.30 432.20 L 554.90 430.10 L 555.90 441.20 L 538.70 443.30 Z" fill="#b2c7db" fill-rule="nonzero" node-id="187" stroke="none" target-height="13.199982" target-width="18.600037" target-x="537.3" target-y="430.1"></path><path d="M 590.60 438.90 L 590.60 427.80 L 608.30 427.80 L 608.30 439.00 L 590.60 438.90 Z" fill="#b2c7db" fill-rule="nonzero" node-id="189" stroke="none" target-height="11.200012" target-width="17.700012" target-x="590.6" target-y="427.8"></path><path d="M 155.10 398.70 L 144.90 396.30 L 147.10 386.90 L 149.60 377.80 L 159.60 381.30 L 157.10 389.90 L 155.10 398.70 Z" fill="#b2c7db" fill-rule="nonzero" node-id="191" stroke="none" target-height="20.900024" target-width="14.700012" target-x="144.9" target-y="377.8"></path><path d="M 173.30 348.40 L 164.20 342.80 L 169.00 334.60 L 174.10 326.70 L 182.60 333.30 L 177.70 340.60 L 173.10 348.30 L 173.30 348.40 Z" fill="#b2c7db" fill-rule="nonzero" node-id="193" stroke="none" target-height="21.699982" target-width="18.40001" target-x="164.2" target-y="326.7"></path><path d="M 611.30 309.60 L 602.30 308.90 L 593.30 307.50 L 595.00 296.40 L 603.40 297.70 L 611.80 298.40 L 611.30 309.60 Z" fill="#b2c7db" fill-rule="nonzero" node-id="195" stroke="none" target-height="13.200012" target-width="18.5" target-x="593.3" target-y="296.4"></path><path d="M 205.40 306.50 L 198.30 298.10 L 205.10 291.80 L 212.20 285.90 L 218.50 294.90 L 205.40 306.50 Z" fill="#b2c7db" fill-rule="nonzero" node-id="197" stroke="none" target-height="20.600006" target-width="20.199997" target-x="198.3" target-y="285.9"></path><path d="M 558.70 296.70 L 550.40 292.70 L 542.40 288.30 L 547.40 278.50 L 554.90 282.60 L 562.70 286.30 L 558.70 296.70 Z" fill="#b2c7db" fill-rule="nonzero" node-id="199" stroke="none" target-height="18.200012" target-width="20.299988" target-x="542.4" target-y="278.5"></path><path d="M 512.50 266.90 L 507.90 263.80 L 498.30 258.50 L 502.70 248.40 L 508.10 251.30 L 513.40 254.60 L 518.40 258.20 L 512.50 266.90 Z" fill="#b2c7db" fill-rule="nonzero" node-id="201" stroke="none" target-height="18.5" target-width="20.100037" target-x="498.3" target-y="248.4"></path><path d="M 466.00 246.90 L 449.20 243.40 L 450.90 232.40 L 468.50 236.10 L 466.00 246.90 Z" fill="#b2c7db" fill-rule="nonzero" node-id="203" stroke="none" target-height="14.5" target-width="19.299988" target-x="449.2" target-y="232.4"></path><path d="M 346.30 242.90 L 344.80 231.80 L 362.50 229.60 L 363.40 240.70 L 346.30 242.90 Z" fill="#b2c7db" fill-rule="nonzero" node-id="205" stroke="none" target-height="13.299988" target-width="18.600006" target-x="344.8" target-y="229.6"></path><path d="M 415.30 239.60 L 398.00 239.10 L 398.00 228.00 L 415.80 228.50 L 415.30 239.60 Z" fill="#b2c7db" fill-rule="nonzero" node-id="207" stroke="none" target-height="11.600006" target-width="17.799988" target-x="398" target-y="228"></path><g node-id="301"><path d="M 213.70 263.00 L 214.00 257.90 L 214.80 252.90 L 216.10 248.00 L 218.00 243.20 L 188.80 227.10 L 186.20 232.80 L 184.10 238.60 L 182.50 244.60 L 181.30 250.70 L 180.60 256.80 L 180.40 263.00 L 180.70 270.00 L 181.60 276.80 L 183.00 283.30 L 185.00 289.70 L 187.50 295.90 L 190.40 301.90 L 193.80 307.50 L 197.70 312.90 L 201.90 317.90 L 206.60 322.60 L 211.60 326.90 L 217.10 330.80 L 222.80 334.20 L 228.80 337.20 L 235.20 339.70 L 241.90 341.70 L 247.90 308.40 L 242.90 306.60 L 238.30 304.40 L 234.10 301.70 L 230.10 298.60 L 226.50 295.20 L 223.30 291.30 L 220.50 287.20 L 218.20 282.80 L 216.30 278.10 L 214.90 273.30 L 214.00 268.20 L 213.70 263.00 Z" fill="#ff9c39" fill-rule="nonzero" group-id="4" node-id="211" stroke="none" target-height="114.600006" target-width="67.5" target-x="180.4" target-y="227.1"></path></g><g node-id="302"><path d="M 331.40 304.90 L 327.40 310.90 L 323.00 316.40 L 318.20 321.40 L 313.00 326.00 L 307.40 330.20 L 301.60 333.80 L 295.40 336.90 L 289.00 339.50 L 282.30 341.60 L 275.50 343.00 L 268.60 343.90 L 261.40 344.20 L 254.70 343.90 L 248.00 343.10 L 241.40 341.70 L 247.40 308.40 L 254.30 309.90 L 261.40 310.40 L 266.80 310.10 L 272.10 309.20 L 277.10 307.70 L 282.00 305.70 L 286.60 303.20 L 291.00 300.20 L 294.90 296.70 L 298.50 292.80 L 301.70 288.40 L 331.40 304.90 Z" fill="#3583f0" fill-opacity="0.18" fill-rule="nonzero" group-id="5" node-id="216" stroke="none" target-height="55.80002" target-width="90" target-x="241.4" target-y="288.4"></path></g><path d="M 342.90 263.00 L 342.20 274.00 L 339.90 284.70 L 336.30 295.00 L 331.30 304.90 L 301.60 288.80 L 304.10 284.50 L 306.10 280.10 L 307.60 275.70 L 308.60 271.20 L 309.20 266.50 L 309.30 262.00 L 309.00 257.40 L 308.20 252.90 L 307.10 248.40 L 305.50 244.20 L 303.50 240.00 L 301.10 236.00 L 298.30 232.30 L 295.10 228.90 L 291.50 225.70 L 287.50 222.80 L 283.20 220.30 L 278.80 218.30 L 274.40 216.80 L 269.90 215.80 L 265.20 215.20 L 260.70 215.10 L 256.10 215.40 L 251.60 216.20 L 247.10 217.30 L 242.90 218.90 L 238.70 220.90 L 234.70 223.30 L 231.00 226.10 L 227.60 229.30 L 224.40 232.90 L 221.50 236.90 L 218.00 243.30 L 188.80 227.10 L 192.00 221.20 L 195.60 215.60 L 199.60 210.50 L 203.90 205.80 L 208.50 201.40 L 213.50 197.50 L 218.60 194.00 L 224.10 190.90 L 229.80 188.20 L 235.60 185.90 L 241.50 184.10 L 247.70 182.80 L 253.90 181.90 L 260.20 181.60 L 266.50 181.70 L 272.90 182.30 L 279.10 183.40 L 285.40 185.00 L 291.60 187.20 L 297.80 189.90 L 302.90 192.70 L 307.80 195.70 L 312.40 199.10 L 316.70 202.70 L 324.50 210.90 L 327.90 215.30 L 333.90 224.80 L 338.40 235.10 L 341.50 246.00 L 342.50 251.50 L 343.10 257.30 L 343.30 263.10 L 342.90 263.00 Z" fill="#4c96ec" fill-rule="nonzero" node-id="219" stroke="none" target-height="123.29999" target-width="154.49998" target-x="188.8" target-y="181.6"></path><g node-id="303"><g node-id="311"><path d="M 697.80 885.30 L 716.70 761.70 L 717.40 759.10 L 718.60 756.90 L 720.30 755.00 L 722.30 753.50 L 724.70 752.50 L 727.30 752.00 L 873.30 742.40 L 875.90 742.50 L 878.20 743.10 L 880.30 744.20 L 882.10 745.70 L 883.60 747.50 L 884.70 749.50 L 885.40 751.80 L 885.50 754.20 L 885.20 756.70 L 854.40 876.10 L 853.60 878.40 L 852.30 880.30 L 850.80 882.00 L 848.90 883.30 L 846.80 884.20 L 844.40 884.70 L 710.30 898.40 L 707.80 898.40 L 705.50 898.00 L 703.50 897.10 L 701.60 895.80 L 700.10 894.20 L 698.80 892.20 L 698.00 890.10 L 697.70 887.80 L 697.80 885.30 Z" fill="#d5ddea" fill-rule="nonzero" group-id="6,14" node-id="224" stroke="none" target-height="156" target-width="187.79999" target-x="697.7" target-y="742.4"></path></g><g node-id="312"><g node-id="315"><path d="M 747.40 854.50 L 747.60 853.20 L 749.60 850.50 L 751.40 846.70 L 751.60 844.70 L 751.20 842.90 L 750.20 841.20 L 748.80 839.90 L 746.70 838.60 L 743.20 837.20 L 742.30 836.30 L 741.90 835.20 L 741.80 830.80 L 742.20 829.40 L 743.00 828.30 L 744.20 827.60 L 747.90 827.10 L 750.10 826.40 L 751.50 825.60 L 753.60 823.20 L 754.10 821.70 L 754.20 820.20 L 754.00 818.50 L 752.20 813.30 L 752.30 812.10 L 752.70 811.00 L 756.00 808.20 L 757.10 807.60 L 758.40 807.40 L 759.70 807.60 L 760.90 808.20 L 762.80 809.80 L 764.90 811.00 L 766.40 811.40 L 769.20 811.30 L 771.80 809.90 L 772.80 808.80 L 775.70 803.00 L 776.60 802.20 L 777.70 801.80 L 782.10 801.80 L 783.30 802.20 L 784.30 802.90 L 785.00 803.90 L 785.40 807.20 L 786.80 811.00 L 788.10 812.60 L 789.80 813.60 L 791.70 814.20 L 793.70 814.10 L 799.40 812.00 L 800.80 812.10 L 802.00 812.60 L 803.00 813.70 L 805.00 816.40 L 805.50 817.50 L 805.60 818.60 L 805.30 819.70 L 803.00 822.70 L 801.80 825.00 L 801.30 826.70 L 801.60 829.90 L 802.40 831.30 L 803.40 832.50 L 809.50 835.70 L 810.40 836.50 L 810.90 837.50 L 810.90 840.60 L 810.10 843.80 L 809.40 844.70 L 808.30 845.30 L 804.20 845.90 L 801.60 846.80 L 800.40 847.50 L 798.60 849.70 L 798.00 852.30 L 798.70 856.10 L 800.10 859.60 L 800.10 860.90 L 799.60 862.10 L 796.30 864.90 L 795.20 865.60 L 793.90 865.90 L 792.60 865.60 L 789.30 863.30 L 786.90 862.10 L 785.40 861.70 L 782.50 862.00 L 780.00 863.40 L 779.00 864.60 L 777.70 866.80 L 776.30 870.20 L 775.50 871.00 L 774.40 871.40 L 773.20 871.50 L 769.50 871.00 L 768.40 870.60 L 767.00 869.00 L 766.10 864.20 L 764.60 861.00 L 763.50 859.90 L 760.70 858.70 L 759.10 858.60 L 755.30 859.60 L 752.10 860.80 L 750.90 860.80 L 748.90 859.70 L 746.60 856.60 L 745.80 854.60 L 747.40 854.50 Z M 776.90 825.00 L 772.90 825.70 L 769.50 827.60 L 766.90 830.60 L 766.10 832.40 L 765.30 836.40 L 766.00 840.40 L 767.90 843.80 L 770.90 846.30 L 772.70 847.20 L 776.70 848.00 L 780.70 847.30 L 784.10 845.40 L 786.60 842.40 L 787.50 840.60 L 788.30 836.60 L 787.60 832.50 L 785.60 829.10 L 782.60 826.60 L 780.80 825.70 L 776.90 825.00 Z" fill="#ffffff" fill-rule="nonzero" group-id="6,15,18" node-id="230" stroke="none" target-height="69.70001" target-width="69.10004" target-x="741.8" target-y="801.8"></path></g><path d="M 834.50 821.10 L 834.30 823.20 L 833.30 824.40 L 829.10 825.40 L 827.50 824.60 L 825.30 821.00 L 824.30 820.00 L 822.00 819.00 L 819.40 819.30 L 817.90 820.20 L 815.00 822.80 L 814.10 823.10 L 812.30 822.80 L 809.50 821.00 L 809.00 820.10 L 808.80 819.10 L 809.60 816.30 L 809.70 813.30 L 808.70 811.10 L 806.80 809.70 L 805.50 809.40 L 800.90 809.20 L 799.60 808.00 L 798.90 805.10 L 798.80 804.10 L 799.60 802.40 L 803.60 799.60 L 804.70 798.20 L 805.20 796.60 L 805.00 795.00 L 804.30 793.40 L 801.50 790.20 L 801.10 789.30 L 801.10 788.20 L 801.50 787.20 L 802.60 785.20 L 804.10 784.00 L 805.10 783.80 L 808.20 784.70 L 810.40 784.70 L 811.80 784.40 L 813.10 783.70 L 814.10 782.60 L 814.70 781.20 L 815.20 776.40 L 815.50 775.60 L 816.90 774.50 L 820.70 773.80 L 822.30 774.70 L 823.90 777.60 L 825.60 779.20 L 827.10 780.00 L 828.80 780.30 L 830.40 780.00 L 831.90 779.20 L 834.60 776.80 L 835.50 776.50 L 837.40 776.70 L 839.70 778.00 L 840.80 779.40 L 840.90 780.30 L 840.00 785.20 L 840.30 787.00 L 841.20 788.40 L 842.60 789.50 L 844.30 790.10 L 848.60 790.20 L 850.10 791.30 L 851.00 794.70 L 851.10 795.60 L 850.90 796.50 L 850.30 797.10 L 847.70 798.60 L 846.10 800.00 L 845.20 801.30 L 844.70 802.70 L 844.70 804.20 L 845.30 805.70 L 848.40 809.50 L 848.80 810.40 L 848.70 811.50 L 848.30 812.50 L 846.60 815.10 L 845.70 815.60 L 844.70 815.70 L 841.90 815.10 L 840.10 815.10 L 837.20 816.10 L 835.50 818.00 L 835.00 819.30 L 835.00 822.00 L 834.50 821.10 Z M 824.70 790.90 L 822.40 791.20 L 820.40 792.00 L 818.60 793.30 L 817.30 795.10 L 816.40 797.10 L 816.00 799.40 L 816.30 801.80 L 817.10 803.90 L 818.50 805.60 L 820.20 807.00 L 822.30 807.90 L 824.60 808.20 L 826.90 807.90 L 829.00 807.10 L 830.70 805.70 L 832.10 804.00 L 833.00 801.90 L 833.30 799.60 L 833.00 797.30 L 832.20 795.30 L 830.90 793.50 L 829.10 792.20 L 827.10 791.30 L 824.70 790.90 Z" fill="#ffffff" fill-rule="nonzero" group-id="6,15,19" node-id="235" stroke="none" target-height="51.600037" target-width="52.299988" target-x="798.8" target-y="773.8"></path></g></g><g node-id="304"><path d="M 83.10 765.20 L 172.90 821.40 L 175.40 822.70 L 177.80 823.50 L 180.30 823.90 L 185.40 823.60 L 190.10 821.80 L 194.10 818.80 L 195.70 816.80 L 197.00 814.60 L 198.00 812.00 L 227.80 713.20 L 228.50 708.50 L 228.40 706.10 L 227.10 701.60 L 224.70 697.60 L 221.20 694.40 L 122.30 626.90 L 119.70 625.40 L 117.00 624.50 L 114.30 624.00 L 111.60 624.00 L 108.90 624.40 L 106.40 625.30 L 104.00 626.50 L 101.80 628.10 L 99.80 630.00 L 98.20 632.30 L 97.00 634.80 L 96.20 637.70 L 75.50 747.80 L 75.30 752.30 L 75.60 754.50 L 77.10 758.70 L 79.60 762.30 L 83.10 765.20 Z" fill="#dee1f0" fill-rule="nonzero" group-id="7" node-id="242" stroke="none" target-height="199.90002" target-width="153.2" target-x="75.3" target-y="624"></path></g><g node-id="305"><g node-id="313"><path d="M 144.20 685.10 L 151.70 686.40 L 158.40 689.00 L 162.60 691.50 L 166.30 694.40 L 169.70 697.80 L 172.60 701.60 L 174.90 705.70 L 176.80 710.10 L 178.40 717.20 L 178.70 724.80 L 177.40 732.30 L 174.70 739.00 L 172.30 743.20 L 169.30 746.90 L 165.90 750.30 L 162.10 753.10 L 158.00 755.50 L 153.60 757.40 L 146.50 759.00 L 142.80 759.30 L 138.90 759.30 L 135.10 758.80 L 128.00 756.80 L 124.70 755.30 L 120.50 752.80 L 116.80 749.90 L 113.50 746.50 L 110.60 742.70 L 108.20 738.60 L 106.30 734.20 L 104.70 727.10 L 104.50 719.50 L 105.80 712.00 L 108.40 705.30 L 110.90 701.10 L 113.80 697.40 L 117.20 694.10 L 121.00 691.20 L 125.10 688.80 L 129.50 686.90 L 136.60 685.30 L 144.20 685.10 Z" fill="#b2c7db" fill-rule="nonzero" group-id="8,16" node-id="249" stroke="none" target-height="74.20001" target-width="74.2" target-x="104.5" target-y="685.1"></path></g></g><g node-id="306"><path d="M 141.60 678.10 L 141.60 723.60 L 181.60 694.70 L 177.20 690.60 L 173.70 687.80 L 169.80 685.20 L 161.60 680.90 L 154.00 678.50 L 150.00 677.80 L 145.90 677.70 L 141.60 678.10 Z" fill="#ffffff" fill-rule="nonzero" group-id="9" node-id="255" stroke="none" target-height="45.899963" target-width="40" target-x="141.6" target-y="677.7"></path></g><path d="M 401.10 848.70 L 351.70 862.60 L 368.80 895.50 L 403.80 885.70 Z" fill="#bad6f7" fill-rule="nonzero" node-id="258" stroke="none" target-height="46.799988" target-width="52.099976" target-x="351.7" target-y="848.7"></path><g node-id="307"><path d="M 321.00 779.80 L 320.80 782.60 L 321.10 785.40 L 323.40 794.50 L 325.30 800.70 L 330.30 812.60 L 336.60 823.90 L 340.50 828.90 L 344.70 833.60 L 349.30 837.90 L 354.20 841.90 L 364.70 849.20 L 381.10 859.00 L 380.30 856.90 L 379.70 847.10 L 378.50 835.40 L 377.50 830.90 L 376.00 826.50 L 374.00 822.30 L 367.70 812.50 L 363.40 807.10 L 358.80 802.00 L 353.70 797.30 L 348.40 793.10 L 342.60 789.20 L 337.40 786.30 L 332.10 783.70 L 326.60 781.60 L 321.00 779.80 Z" fill="#d5ddea" fill-rule="nonzero" group-id="10" node-id="262" stroke="none" target-height="79.20001" target-width="60.30002" target-x="320.8" target-y="779.8"></path></g><path d="M 389.00 804.00 L 390.00 796.10 L 390.50 788.30 L 390.50 780.40 L 389.90 772.50 L 389.20 768.50 L 386.80 761.00 L 382.90 754.10 L 377.80 748.10 L 374.80 745.40 L 360.50 795.00 L 359.20 801.40 L 358.30 807.90 L 357.90 814.40 L 358.60 820.10 L 359.80 825.70 L 361.60 831.10 L 363.80 836.40 L 366.40 841.30 L 369.60 846.10 L 373.10 850.50 L 377.10 854.60 L 381.50 858.40 L 383.50 853.70 L 384.10 850.90 L 384.60 846.50 L 385.40 833.70 L 389.00 804.00 Z" fill="#bad6f7" fill-rule="nonzero" node-id="265" stroke="none" target-height="113" target-width="32.600006" target-x="357.9" target-y="745.4"></path><g node-id="308"><path d="M 346.60 851.00 L 399.60 836.10 L 401.80 835.80 L 403.90 836.00 L 405.90 836.80 L 407.60 838.10 L 409.00 839.70 L 409.90 841.80 L 410.20 844.00 L 409.90 846.10 L 409.10 848.10 L 407.90 849.80 L 406.20 851.20 L 404.10 852.10 L 351.10 867.00 L 348.90 867.30 L 346.80 867.10 L 344.80 866.30 L 343.10 865.00 L 341.70 863.40 L 340.80 861.30 L 340.50 859.10 L 340.80 857.00 L 341.60 855.00 L 342.90 853.30 L 344.50 851.90 L 346.60 851.00 Z" fill="#e7eaf0" fill-rule="nonzero" group-id="11" node-id="269" stroke="none" target-height="31.5" target-width="69.70001" target-x="340.5" target-y="835.8"></path></g><g node-id="309"><g node-id="314"><path d="M 705.30 553.80 L 766.60 424.10 L 768.40 421.00 L 770.50 418.30 L 773.00 416.00 L 775.90 414.10 L 778.90 412.70 L 782.10 411.60 L 785.50 411.10 L 789.00 411.10 L 792.50 411.70 L 891.80 435.40 L 895.20 436.50 L 898.30 438.00 L 901.00 440.00 L 903.40 442.30 L 905.40 444.90 L 907.10 447.70 L 908.30 450.80 L 909.00 453.90 L 909.30 457.30 L 909.10 460.60 L 908.40 463.90 L 907.10 467.30 L 844.80 598.30 L 843.00 601.40 L 840.80 604.10 L 838.30 606.40 L 835.40 608.40 L 832.40 609.80 L 829.10 610.80 L 825.70 611.30 L 822.20 611.20 L 818.60 610.60 L 720.30 585.70 L 716.90 584.50 L 714.00 583.00 L 711.30 581.00 L 708.90 578.70 L 706.90 576.10 L 705.30 573.20 L 704.20 570.20 L 703.40 567.00 L 703.10 563.70 L 703.30 560.40 L 704.00 557.10 L 705.30 553.80 Z" fill="#ddeafa" fill-rule="nonzero" group-id="12,17" node-id="276" stroke="none" target-height="200.19998" target-width="206.20001" target-x="703.1" target-y="411.1"></path></g></g><path d="M 751.50 554.20 L 736.60 550.80 L 748.30 527.60 L 763.30 531.00 Z" fill="#ffffff" fill-rule="nonzero" node-id="280" stroke="none" target-height="26.600037" target-width="26.700012" target-x="736.6" target-y="527.6"></path><path d="M 770.00 558.30 L 755.00 555.00 L 779.00 507.70 L 794.00 511.00 Z" fill="#3583f0" fill-rule="nonzero" node-id="282" stroke="none" target-height="50.599976" target-width="39" target-x="755" target-y="507.7"></path><path d="M 788.50 562.50 L 773.50 559.10 L 788.10 530.30 L 803.10 533.70 Z" fill="#ffffff" fill-rule="nonzero" node-id="284" stroke="none" target-height="32.200012" target-width="29.599976" target-x="773.5" target-y="530.3"></path><path d="M 806.90 566.70 L 792.00 563.30 L 823.60 501.00 L 838.60 504.40 Z" fill="#b2c7db" fill-rule="nonzero" node-id="286" stroke="none" target-height="65.70001" target-width="46.599976" target-x="792" target-y="501"></path><path d="M 825.40 570.80 L 810.50 567.50 L 850.90 487.80 L 865.90 491.20 Z" fill="#ffffff" fill-rule="nonzero" node-id="288" stroke="none" target-height="83" target-width="55.400024" target-x="810.5" target-y="487.8"></path><g node-id="310"><path d="M 491.50 748.30 L 442.20 766.30 L 436.40 750.60 L 454.20 666.10 L 481.80 656.00 L 506.30 722.90 L 520.00 717.90 L 526.50 735.50 L 512.80 740.50 L 523.00 768.40 L 501.60 776.20 L 491.50 748.30 Z M 476.90 708.40 L 468.90 683.70 L 468.10 684.00 L 465.60 705.60 L 458.10 740.50 L 485.10 730.60 L 476.90 708.40 Z" fill="#8d8dc9" fill-rule="nonzero" group-id="13" node-id="292" stroke="none" target-height="120.20001" target-width="90.100006" target-x="436.4" target-y="656"></path><path d="M 527.30 702.70 L 524.60 694.70 L 522.70 687.40 L 521.40 680.70 L 520.70 674.50 L 520.50 668.90 L 520.80 663.00 L 521.60 657.60 L 522.90 652.80 L 524.70 648.40 L 526.90 644.50 L 529.70 640.90 L 532.80 637.70 L 536.40 634.80 L 540.50 632.40 L 545.20 630.40 L 550.10 628.90 L 554.80 628.10 L 559.30 627.90 L 563.80 628.40 L 568.30 629.40 L 572.50 631.00 L 576.70 633.20 L 580.80 636.00 L 584.90 639.50 L 589.00 643.90 L 592.50 648.30 L 595.90 653.50 L 599.20 659.50 L 602.50 666.30 L 605.60 674.10 L 608.30 682.10 L 610.20 689.40 L 611.50 696.10 L 612.30 702.30 L 612.50 708.10 L 612.20 714.10 L 611.40 719.50 L 610.10 724.40 L 608.40 728.90 L 606.20 732.80 L 603.50 736.60 L 600.30 739.90 L 596.70 742.70 L 592.60 745.20 L 588.00 747.20 L 583.10 748.60 L 578.40 749.40 L 573.80 749.50 L 569.30 749.00 L 564.80 747.90 L 560.50 746.30 L 556.30 744.00 L 552.20 741.10 L 548.00 737.50 L 543.90 733.00 L 540.40 728.50 L 537.00 723.30 L 533.70 717.30 L 530.40 710.50 L 527.30 702.70 Z M 583.70 682.00 L 577.80 668.00 L 575.30 663.00 L 572.30 658.20 L 569.60 654.60 L 567.10 652.00 L 564.30 649.80 L 561.70 648.40 L 559.30 647.60 L 556.70 647.30 L 554.20 647.60 L 549.30 649.40 L 547.20 650.90 L 545.40 652.70 L 544.00 654.90 L 543.00 657.70 L 542.20 661.20 L 542.00 664.70 L 542.30 669.20 L 543.10 674.80 L 546.20 686.90 L 548.90 694.80 L 554.70 708.80 L 557.40 713.90 L 560.40 718.70 L 563.10 722.40 L 565.60 725.10 L 568.50 727.40 L 571.10 728.90 L 573.60 729.80 L 576.20 730.10 L 578.80 729.90 L 581.30 729.20 L 583.70 728.10 L 585.70 726.60 L 587.50 724.70 L 588.80 722.40 L 589.90 719.50 L 590.50 715.90 L 590.70 712.20 L 590.40 707.60 L 589.50 702.00 L 586.40 689.90 L 583.70 682.00 Z" fill="#8d8dc9" fill-rule="nonzero" group-id="13" node-id="294" stroke="none" target-height="121.599976" target-width="92" target-x="520.5" target-y="627.9"></path><path d="M 675.40 680.90 L 626.10 698.90 L 620.30 683.20 L 638.10 598.70 L 665.70 588.60 L 690.20 655.50 L 703.90 650.50 L 710.40 668.10 L 696.70 673.10 L 706.90 701.00 L 685.50 708.80 L 675.40 680.90 Z M 660.80 641.00 L 652.80 616.30 L 652.00 616.60 L 649.50 638.20 L 642.00 673.10 L 669.00 663.20 L 660.80 641.00 Z" fill="#8d8dc9" fill-rule="nonzero" group-id="13" node-id="296" stroke="none" target-height="120.20001" target-width="90.10004" target-x="620.3" target-y="588.6"></path></g></svg>