<?xml version="1.0" standalone="no"?><!DOCTYPE svg PUBLIC "-//W3C//DTD SVG 1.1//EN" "http://www.w3.org/Graphics/SVG/1.1/DTD/svg11.dtd"><svg t="1751186608457" class="icon" viewBox="0 0 1024 1024" version="1.1" xmlns="http://www.w3.org/2000/svg" p-id="12768" xmlns:xlink="http://www.w3.org/1999/xlink" width="200" height="200"><path d="M942.136889 398.222222c21.048889 0 41.187556 7.907556 56.604444 22.016 32.597333 30.264889 33.848889 80.497778 2.56 112.071111l-198.030222 200.021334a82.488889 82.488889 0 0 1-39.025778 22.016h-0.455111l-438.556444 60.586666L236.088889 905.102222a18.033778 18.033778 0 0 1-24.860445 0.398222L5.461333 714.524444a17.237333 17.237333 0 0 1 1.706667-26.567111l309.077333-224.142222c8.135111-5.404444 29.127111-18.261333 48.469334-19.911111h1.251555l1.308445 0.398222c116.167111 38.172444 270.904889 88.803556 273.521777 89.656889 8.988444 2.901333 23.096889 7.907556 36.864 15.758222 19.683556 13.312 39.822222 35.271111 30.435556 68.892445a55.068444 55.068444 0 0 1-27.875556 34.076444 37.546667 37.546667 0 0 1-30.435555 2.048l-1.706667-0.398222-174.478222-51.086222a21.560889 21.560889 0 0 0-26.624 13.710222c-3.413333 10.808889 3.015111 22.414222 14.222222 25.770667l173.568 50.631111a83.683556 83.683556 0 0 0 64.284445-4.152889 97.28 97.28 0 0 0 50.176-60.643556c7.736889-26.168889 4.323556-48.526222-4.721778-67.242666l138.922667-138.581334c15.018667-15.36 35.157333-24.120889 57.002666-24.519111zM474.453333 113.777778a133.063111 133.063111 0 0 1 125.781334 175.786666l38.286222 38.286223c28.16 0.398222 46.648889 4.835556 55.864889 14.051555 9.216 9.216 13.653333 27.704889 14.051555 55.808l14.961778 14.961778 2.673778 2.616889c10.126222 10.126222 14.961778 26.851556 13.198222 46.136889-1.308444 15.36-6.599111 30.378667-13.198222 36.977778-7.964444 7.907556-27.306667 13.596444-44.885333 13.596444-16.270222 0-29.923556-4.835556-38.684445-13.653333l-122.311111-122.140445a273.635556 273.635556 0 0 1-32.540444 1.706667c-46.193778 0-82.261333-12.743111-107.349334-36.920889a133.12 133.12 0 0 1 0-188.074667A130.730667 130.730667 0 0 1 474.453333 113.777778z m4.380445 55.808c-19.797333-0.398222-40.448 8.817778-56.32 24.632889-13.653333 13.653333-22.414222 30.72-24.576 48.355555-2.218667 18.033778 2.616889 34.247111 14.051555 45.681778 9.671111 9.272889 22.869333 14.506667 37.376 14.506667 19.797333 0 40.504889-9.216 56.32-25.031111 28.615111-28.558222 33.450667-70.769778 10.581334-93.639112a51.768889 51.768889 0 0 0-37.432889-14.506666z" fill="#2B85FB" p-id="12769" data-spm-anchor-id="a313x.search_index.0.i2.5ed23a81IRkZ0U" class=""></path></svg>