<?xml version="1.0" standalone="no"?><!DOCTYPE svg PUBLIC "-//W3C//DTD SVG 1.1//EN" "http://www.w3.org/Graphics/SVG/1.1/DTD/svg11.dtd"><svg height="1024" node-id="1" sillyvg="true" template-height="1024" template-width="1024" version="1.1" viewBox="0 0 1024 1024" width="1024" xmlns="http://www.w3.org/2000/svg" xmlns:xlink="http://www.w3.org/1999/xlink"><defs node-id="89"></defs><g node-id="313"><g node-id="341"><path d="M 903.60 491.50 L 903.40 493.60 L 902.70 495.60 L 901.60 497.70 L 900.00 499.80 L 897.80 502.00 L 894.90 504.30 L 886.90 508.90 L 881.50 511.20 L 874.50 513.70 L 866.30 516.10 L 856.80 518.40 L 847.30 520.20 L 825.40 523.10 L 802.00 524.60 L 789.30 524.80 L 776.60 524.60 L 753.20 523.10 L 731.30 520.20 L 721.80 518.40 L 712.30 516.10 L 704.10 513.70 L 697.10 511.20 L 687.30 506.60 L 683.70 504.30 L 678.60 499.80 L 677.00 497.70 L 675.90 495.60 L 675.20 493.60 L 675.00 491.50 L 675.20 489.40 L 675.90 487.40 L 677.00 485.30 L 678.60 483.20 L 680.80 481.00 L 687.30 476.40 L 691.70 474.10 L 697.10 471.80 L 704.10 469.30 L 712.30 466.90 L 721.80 464.60 L 741.80 461.20 L 764.60 459.00 L 789.30 458.20 L 802.00 458.40 L 825.40 459.90 L 847.30 462.80 L 856.80 464.60 L 866.30 466.90 L 874.50 469.30 L 881.50 471.80 L 886.90 474.10 L 894.90 478.70 L 897.80 481.00 L 900.00 483.20 L 901.60 485.30 L 902.70 487.40 L 903.40 489.40 L 903.60 491.50 Z" fill="#b2c7db" fill-opacity="0.6" fill-rule="nonzero" group-id="1,29" node-id="95" stroke="none" target-height="66.599976" target-width="228.59998" target-x="675" target-y="458.2"></path></g></g><g node-id="314"><g node-id="342"><path d="M 797.50 827.00 L 797.30 828.60 L 796.50 830.30 L 795.30 832.00 L 793.30 833.90 L 787.10 837.70 L 782.80 839.70 L 770.90 843.80 L 762.30 846.10 L 740.40 850.50 L 715.50 854.20 L 701.00 855.80 L 671.00 858.20 L 637.90 859.80 L 602.60 860.30 L 567.30 859.80 L 534.20 858.20 L 504.20 855.80 L 489.70 854.20 L 464.80 850.50 L 442.90 846.10 L 434.30 843.80 L 422.40 839.70 L 418.10 837.70 L 411.90 833.90 L 409.90 832.00 L 408.70 830.30 L 407.90 828.60 L 407.70 827.00 L 407.90 825.40 L 408.70 823.70 L 409.90 822.00 L 411.90 820.10 L 414.70 818.10 L 422.40 814.30 L 434.30 810.20 L 442.90 807.90 L 464.80 803.50 L 489.70 799.80 L 504.20 798.20 L 534.20 795.80 L 567.30 794.20 L 602.60 793.70 L 637.90 794.20 L 671.00 795.80 L 701.00 798.20 L 715.50 799.80 L 740.40 803.50 L 762.30 807.90 L 770.90 810.20 L 782.80 814.30 L 787.10 816.30 L 793.30 820.10 L 795.30 822.00 L 796.50 823.70 L 797.30 825.40 L 797.50 827.00 Z" fill="#b2c7db" fill-rule="nonzero" group-id="2,30" node-id="103" stroke="none" target-height="66.599976" target-width="389.8" target-x="407.7" target-y="793.7"></path></g></g><g node-id="315"><g node-id="343"><path d="M 972.70 642.40 L 974.00 645.00 L 974.70 647.70 L 975.00 650.40 L 974.80 653.10 L 974.10 655.70 L 973.00 658.20 L 971.50 660.50 L 969.60 662.50 L 967.30 664.20 L 956.50 670.30 L 945.60 675.70 L 934.70 680.60 L 923.60 684.80 L 912.30 688.60 L 900.90 691.90 L 889.50 694.60 L 878.00 696.90 L 866.40 698.80 L 854.80 700.30 L 831.50 702.30 L 815.90 702.80 L 800.50 702.90 L 785.10 702.60 L 782.20 702.20 L 779.60 701.40 L 777.10 700.20 L 774.90 698.50 L 773.10 696.60 L 771.60 694.30 L 770.50 691.80 L 769.90 689.10 L 769.70 686.20 L 770.10 683.30 L 770.90 680.70 L 772.10 678.20 L 773.80 676.00 L 775.70 674.20 L 778.00 672.70 L 780.50 671.60 L 783.20 671.00 L 786.10 670.80 L 800.90 671.10 L 815.40 671.00 L 829.90 670.50 L 844.20 669.40 L 858.40 667.80 L 872.30 665.60 L 882.60 663.50 L 892.80 661.10 L 902.90 658.20 L 912.80 654.90 L 922.60 651.10 L 932.10 646.90 L 941.60 642.20 L 950.90 636.90 L 953.50 635.60 L 956.20 634.90 L 958.90 634.70 L 961.60 634.90 L 964.20 635.50 L 966.70 636.60 L 969.00 638.20 L 971.00 640.10 L 972.70 642.40 Z" fill="#88b6e5" fill-rule="evenodd" group-id="3,31" node-id="111" stroke="none" target-height="68.20001" target-width="205.29999" target-x="769.7" target-y="634.7"></path></g></g><g node-id="316"><g node-id="344"><path d="M 536.10 824.90 L 697.60 824.90 L 704.40 824.60 L 710.90 823.70 L 717.40 822.20 L 723.70 820.20 L 729.80 817.70 L 735.70 814.60 L 741.50 811.10 L 747.10 807.00 L 752.40 802.60 L 757.50 797.70 L 762.30 792.30 L 767.00 786.50 L 771.20 780.50 L 775.20 774.00 L 778.90 767.20 L 782.30 760.00 L 785.30 752.60 L 788.00 745.00 L 790.30 737.00 L 792.20 728.70 L 793.70 720.40 L 794.80 711.80 L 795.50 703.00 L 795.70 693.90 L 795.50 684.80 L 794.80 676.00 L 793.70 667.40 L 792.20 659.00 L 790.30 650.70 L 788.00 642.70 L 785.30 635.10 L 782.30 627.70 L 778.90 620.50 L 775.20 613.70 L 771.20 607.20 L 767.00 601.20 L 762.30 595.40 L 757.50 590.00 L 752.40 585.10 L 747.10 580.70 L 741.50 576.60 L 735.70 573.10 L 729.80 570.00 L 723.70 567.50 L 717.40 565.50 L 710.90 564.00 L 704.40 563.10 L 697.60 562.80 L 536.10 562.80 L 542.40 563.10 L 548.50 563.80 L 554.50 565.10 L 560.40 566.80 L 566.10 569.00 L 571.70 571.70 L 577.10 574.80 L 582.40 578.30 L 587.50 582.20 L 592.30 586.40 L 597.00 591.10 L 605.70 601.50 L 613.40 613.20 L 616.90 619.60 L 620.90 628.40 L 624.40 637.40 L 627.40 646.50 L 629.80 655.80 L 631.70 665.20 L 633.10 674.70 L 633.90 684.30 L 634.20 693.90 L 633.90 703.50 L 633.10 713.10 L 631.70 722.60 L 629.80 732.00 L 627.40 741.30 L 624.40 750.40 L 620.90 759.40 L 616.90 768.20 L 613.40 774.60 L 605.70 786.20 L 597.00 796.60 L 592.30 801.30 L 587.40 805.50 L 582.40 809.40 L 577.10 813.00 L 571.60 816.00 L 566.10 818.70 L 560.40 820.90 L 554.50 822.60 L 548.50 823.90 L 542.40 824.60 L 536.10 824.90 Z" fill="#dee6ff" fill-rule="nonzero" group-id="4,32" node-id="119" stroke="none" target-height="262.10004" target-width="259.60004" target-x="536.1" target-y="562.8"></path></g></g><g node-id="317"><g node-id="345"><path d="M 652.20 610.90 L 648.30 603.80 L 644.10 597.10 L 639.70 590.80 L 635.10 584.90 L 630.00 579.20 L 624.80 574.00 L 619.40 569.30 L 613.80 564.90 L 607.90 561.00 L 601.80 557.50 L 595.60 554.60 L 589.20 552.10 L 582.60 550.20 L 575.90 548.80 L 569.10 547.90 L 562.10 547.60 L 526.00 547.60 L 520.00 547.80 L 514.00 548.50 L 508.20 549.50 L 502.50 551.00 L 496.90 552.80 L 490.10 555.70 L 483.50 559.10 L 477.10 563.00 L 470.80 567.60 L 464.90 572.50 L 459.20 578.00 L 453.80 583.90 L 448.70 590.40 L 443.90 597.20 L 439.50 604.40 L 435.40 612.00 L 431.50 620.00 L 428.20 628.20 L 425.20 636.80 L 422.70 645.70 L 420.50 654.90 L 418.80 664.30 L 417.60 673.80 L 416.90 683.70 L 416.60 693.80 L 416.90 703.90 L 417.60 713.80 L 418.80 723.30 L 420.50 732.70 L 422.70 741.90 L 425.20 750.80 L 428.20 759.40 L 431.50 767.60 L 435.40 775.60 L 439.50 783.20 L 443.90 790.40 L 448.70 797.20 L 453.80 803.70 L 459.20 809.60 L 464.90 815.10 L 470.80 820.00 L 477.10 824.60 L 483.50 828.50 L 490.10 831.90 L 496.90 834.80 L 502.50 836.60 L 508.20 838.10 L 514.00 839.10 L 520.00 839.80 L 526.00 840.00 L 562.20 840.00 L 569.20 839.70 L 576.00 838.80 L 582.70 837.40 L 589.30 835.50 L 595.70 833.00 L 601.90 830.10 L 608.00 826.70 L 613.90 822.70 L 619.50 818.40 L 624.90 813.60 L 630.10 808.40 L 635.20 802.70 L 639.80 796.80 L 644.20 790.50 L 648.40 783.80 L 652.30 776.70 L 656.80 766.90 L 660.70 756.90 L 664.00 746.70 L 666.70 736.30 L 668.80 725.80 L 670.40 715.20 L 671.30 704.60 L 671.60 693.80 L 671.30 683.00 L 670.40 672.40 L 668.80 661.80 L 666.70 651.30 L 664.00 640.90 L 660.70 630.70 L 656.80 620.70 L 652.20 610.90 Z" fill="#4c96ec" fill-rule="nonzero" group-id="5,33" node-id="127" stroke="none" target-height="292.40002" target-width="254.99997" target-x="416.6" target-y="547.6"></path></g></g><g node-id="318"><g node-id="346"><path d="M 615.30 610.90 L 611.30 603.80 L 607.10 597.10 L 602.60 590.80 L 597.80 584.90 L 592.70 579.20 L 587.40 574.00 L 581.90 569.30 L 576.20 565.00 L 570.10 561.00 L 564.00 557.60 L 557.60 554.60 L 551.10 552.20 L 544.50 550.20 L 537.70 548.80 L 530.70 547.90 L 523.60 547.60 L 517.40 547.80 L 511.40 548.50 L 505.50 549.50 L 499.70 551.00 L 494.00 552.80 L 487.00 555.70 L 480.30 559.10 L 473.70 563.00 L 467.30 567.60 L 461.30 572.50 L 455.50 578.00 L 450.00 583.90 L 444.80 590.40 L 439.90 597.20 L 435.40 604.40 L 431.20 612.00 L 427.30 620.00 L 423.90 628.20 L 420.90 636.80 L 418.30 645.70 L 416.10 654.90 L 414.40 664.30 L 413.10 673.80 L 412.40 683.70 L 412.10 693.80 L 412.40 703.90 L 413.10 713.80 L 414.40 723.30 L 416.10 732.60 L 418.30 741.90 L 420.90 750.80 L 423.90 759.30 L 427.30 767.50 L 431.20 775.60 L 435.40 783.20 L 439.90 790.40 L 444.80 797.10 L 450.00 803.60 L 455.50 809.60 L 461.30 815.00 L 467.30 820.00 L 473.70 824.50 L 480.30 828.50 L 487.00 831.90 L 494.00 834.70 L 499.70 836.60 L 505.50 838.10 L 511.40 839.10 L 517.40 839.80 L 523.60 840.00 L 530.70 839.70 L 537.70 838.80 L 544.50 837.40 L 551.20 835.50 L 557.70 833.00 L 564.00 830.10 L 570.20 826.70 L 576.20 822.70 L 582.00 818.40 L 587.50 813.60 L 592.80 808.40 L 597.90 802.70 L 602.60 796.80 L 607.10 790.50 L 611.30 783.80 L 615.30 776.70 L 619.90 766.90 L 623.90 756.90 L 627.20 746.70 L 630.00 736.30 L 632.20 725.80 L 633.70 715.20 L 634.70 704.60 L 635.00 693.80 L 634.70 683.00 L 633.70 672.40 L 632.20 661.80 L 630.00 651.30 L 627.20 640.90 L 623.80 630.80 L 619.90 620.80 L 615.30 610.90 Z" fill="#aad5f9" fill-rule="nonzero" group-id="6,34" node-id="135" stroke="none" target-height="292.40002" target-width="222.9" target-x="412.1" target-y="547.6"></path></g></g><g node-id="319"><g node-id="347"><path d="M 540.20 666.90 L 536.00 672.80 L 531.00 677.40 L 525.10 680.70 L 522.00 681.80 L 518.70 682.50 L 515.30 682.70 L 502.20 682.50 L 496.30 681.00 L 493.50 679.80 L 490.10 677.70 L 486.90 675.10 L 483.90 672.00 L 481.40 668.50 L 479.30 664.60 L 477.50 660.30 L 476.20 655.90 L 475.40 651.10 L 475.10 646.10 L 475.40 641.00 L 476.20 636.30 L 477.50 631.80 L 479.30 627.60 L 481.40 623.70 L 483.90 620.20 L 486.90 617.10 L 490.10 614.50 L 493.50 612.40 L 499.20 610.20 L 505.30 609.50 L 518.70 609.70 L 522.00 610.40 L 525.10 611.50 L 528.10 612.90 L 533.60 617.00 L 538.20 622.20 L 540.20 625.30 L 541.80 628.60 L 544.20 635.40 L 544.90 638.90 L 545.50 646.10 L 544.90 653.20 L 543.10 660.20 L 540.20 666.90 Z" fill="#88b6e5" fill-rule="nonzero" group-id="7,35" node-id="143" stroke="none" target-height="73.20001" target-width="70.399994" target-x="475.1" target-y="609.5"></path></g></g><g node-id="320"><g node-id="348"><path d="M 540.20 765.50 L 536.00 771.40 L 531.00 776.00 L 525.10 779.30 L 522.00 780.40 L 518.70 781.10 L 515.30 781.30 L 502.20 781.10 L 496.30 779.60 L 493.50 778.40 L 490.10 776.30 L 486.90 773.70 L 483.90 770.60 L 481.40 767.10 L 479.30 763.20 L 477.50 758.90 L 476.20 754.50 L 475.40 749.70 L 475.10 744.70 L 475.40 739.60 L 476.20 734.90 L 477.50 730.40 L 479.30 726.20 L 481.40 722.30 L 483.90 718.80 L 486.90 715.70 L 490.10 713.10 L 493.50 711.00 L 499.20 708.80 L 505.30 708.10 L 518.70 708.30 L 522.00 709.00 L 525.10 710.10 L 528.10 711.50 L 533.60 715.60 L 538.20 720.80 L 540.20 723.90 L 541.80 727.20 L 544.20 734.00 L 544.90 737.50 L 545.50 744.70 L 544.90 751.90 L 543.10 758.90 L 540.20 765.50 Z" fill="#88b6e5" fill-rule="nonzero" group-id="8,36" node-id="151" stroke="none" target-height="73.20001" target-width="70.399994" target-x="475.1" target-y="708.1"></path></g></g><g node-id="321"><g node-id="349"><path d="M 529.00 666.90 L 524.90 672.80 L 520.00 677.40 L 514.30 680.70 L 511.20 681.80 L 508.00 682.50 L 504.70 682.70 L 500.70 682.30 L 496.90 681.40 L 493.20 679.80 L 489.80 677.70 L 486.70 675.10 L 483.80 672.00 L 481.30 668.50 L 479.20 664.60 L 477.40 660.30 L 476.20 655.90 L 475.40 651.10 L 475.10 646.10 L 475.40 641.00 L 476.20 636.30 L 477.40 631.80 L 479.20 627.60 L 481.30 623.70 L 483.70 620.20 L 486.60 617.10 L 489.80 614.50 L 493.20 612.40 L 498.70 610.20 L 504.70 609.50 L 508.00 609.70 L 511.20 610.40 L 514.30 611.50 L 520.00 614.80 L 524.90 619.40 L 529.00 625.30 L 531.90 632.00 L 533.60 638.90 L 534.20 646.10 L 533.70 653.20 L 531.90 660.20 L 529.00 666.90 Z" fill="#dee6ff" fill-rule="nonzero" group-id="9,37" node-id="159" stroke="none" target-height="73.20001" target-width="59.100006" target-x="475.1" target-y="609.5"></path></g></g><g node-id="322"><g node-id="350"><path d="M 529.00 765.50 L 524.90 771.40 L 520.00 776.00 L 514.30 779.30 L 511.20 780.40 L 508.00 781.10 L 504.70 781.30 L 500.70 780.90 L 496.90 780.00 L 493.20 778.40 L 489.80 776.30 L 486.70 773.70 L 483.80 770.60 L 481.30 767.10 L 479.20 763.20 L 477.40 758.90 L 476.20 754.50 L 475.40 749.70 L 475.10 744.70 L 475.40 739.60 L 476.20 734.90 L 477.40 730.40 L 479.20 726.20 L 481.30 722.30 L 483.70 718.80 L 486.60 715.70 L 489.80 713.10 L 493.20 711.00 L 498.70 708.80 L 504.70 708.10 L 508.00 708.30 L 511.20 709.00 L 514.30 710.10 L 520.00 713.40 L 524.90 718.00 L 529.00 723.90 L 531.90 730.60 L 533.60 737.50 L 534.20 744.70 L 533.70 751.90 L 531.90 758.90 L 529.00 765.50 Z" fill="#dee6ff" fill-rule="nonzero" group-id="10,38" node-id="167" stroke="none" target-height="73.20001" target-width="59.100006" target-x="475.1" target-y="708.1"></path></g></g><g node-id="323"><g node-id="351"><path d="M 902.70 414.20 L 901.60 420.90 L 900.10 427.40 L 898.20 433.80 L 895.90 440.00 L 893.20 446.20 L 890.10 452.10 L 886.60 457.80 L 882.80 463.40 L 878.60 468.70 L 874.10 473.70 L 869.40 478.40 L 864.30 482.80 L 859.00 486.80 L 853.40 490.50 L 847.60 493.90 L 841.60 496.90 L 835.40 499.50 L 829.10 501.70 L 822.60 503.50 L 816.10 504.90 L 809.50 505.90 L 802.80 506.40 L 796.10 506.60 L 789.40 506.30 L 782.70 505.60 L 776.10 504.50 L 769.60 502.90 L 763.20 501.00 L 756.90 498.60 L 750.80 495.90 L 744.90 492.80 L 739.10 489.30 L 698.20 503.00 L 696.30 503.40 L 694.40 503.10 L 692.60 502.40 L 691.10 501.10 L 690.00 499.50 L 689.40 497.70 L 689.30 495.80 L 689.80 493.90 L 706.20 454.60 L 700.40 443.30 L 695.90 431.50 L 694.20 425.40 L 692.00 413.00 L 691.20 400.30 L 691.40 394.00 L 692.80 381.50 L 695.80 369.20 L 700.20 357.30 L 706.00 346.00 L 709.40 340.70 L 717.00 330.70 L 725.90 321.60 L 735.80 313.60 L 746.50 306.90 L 757.90 301.50 L 769.90 297.60 L 782.40 295.00 L 794.90 294.00 L 807.60 294.40 L 820.00 296.40 L 832.30 299.80 L 843.90 304.60 L 849.50 307.60 L 860.10 314.40 L 869.90 322.50 L 874.40 327.00 L 882.60 336.60 L 889.50 347.20 L 895.20 358.50 L 899.50 370.50 L 901.00 376.60 L 903.10 389.10 L 903.70 401.70 L 903.40 408.00 L 902.70 414.20 Z" fill="#ff9c39" fill-rule="nonzero" group-id="11,39" node-id="175" stroke="none" target-height="212.6" target-width="214.40002" target-x="689.3" target-y="294"></path></g></g><g node-id="324"><g node-id="352"><path d="M 790.70 432.00 L 800.60 432.00 L 802.80 348.90 L 788.30 348.90 L 790.70 432.00 Z M 795.50 468.80 L 799.20 468.20 L 802.30 466.40 L 804.50 463.60 L 805.70 460.10 L 805.70 455.80 L 804.50 452.20 L 802.30 449.40 L 799.20 447.60 L 797.40 447.20 L 793.60 447.20 L 791.90 447.60 L 788.90 449.40 L 786.60 452.20 L 785.40 455.80 L 785.40 460.10 L 785.90 462.00 L 787.70 465.20 L 788.90 466.40 L 791.90 468.20 L 795.50 468.80 Z" fill="#ffffff" fill-rule="nonzero" group-id="12,40" node-id="183" stroke="none" target-height="119.899994" target-width="20.299988" target-x="785.4" target-y="348.9"></path></g></g><g node-id="325"><g node-id="353"><path d="M 410.30 620.80 L 500.50 620.80 L 504.00 621.00 L 507.30 621.70 L 510.40 622.80 L 513.30 624.30 L 516.00 626.10 L 518.50 628.30 L 520.60 630.70 L 522.40 633.40 L 523.90 636.30 L 525.00 639.40 L 525.70 642.70 L 525.90 646.20 L 525.70 649.70 L 525.00 653.00 L 523.90 656.10 L 522.40 659.00 L 520.60 661.70 L 518.50 664.20 L 516.00 666.30 L 513.30 668.10 L 510.40 669.60 L 507.30 670.70 L 504.00 671.40 L 500.50 671.60 L 410.30 671.60 L 406.80 671.40 L 403.50 670.70 L 400.40 669.60 L 397.50 668.10 L 394.80 666.30 L 392.30 664.20 L 390.20 661.70 L 388.40 659.00 L 386.90 656.10 L 385.80 653.00 L 385.10 649.70 L 384.90 646.20 L 385.10 642.70 L 385.80 639.40 L 386.90 636.30 L 388.40 633.30 L 390.20 630.60 L 392.40 628.20 L 394.80 626.10 L 397.50 624.30 L 400.40 622.80 L 403.50 621.70 L 406.80 621.00 L 410.30 620.80 Z" fill="#88b6e5" fill-rule="nonzero" group-id="13,41" node-id="191" stroke="none" target-height="50.799988" target-width="141.00003" target-x="384.9" target-y="620.8"></path></g></g><g node-id="326"><g node-id="354"><path d="M 410.30 719.40 L 500.50 719.40 L 504.00 719.60 L 507.30 720.30 L 510.40 721.40 L 513.30 722.90 L 516.00 724.70 L 518.50 726.90 L 520.60 729.30 L 522.40 732.00 L 523.90 734.90 L 525.00 738.00 L 525.70 741.30 L 525.90 744.80 L 525.70 748.30 L 525.00 751.60 L 523.90 754.70 L 522.40 757.60 L 520.60 760.30 L 518.50 762.80 L 516.00 764.90 L 513.30 766.70 L 510.40 768.20 L 507.30 769.30 L 504.00 770.00 L 500.50 770.20 L 410.30 770.20 L 406.80 770.00 L 403.50 769.30 L 400.40 768.20 L 397.50 766.70 L 394.80 764.90 L 392.30 762.80 L 390.20 760.30 L 388.40 757.60 L 386.90 754.70 L 385.80 751.60 L 385.10 748.30 L 384.90 744.80 L 385.10 741.30 L 385.80 738.00 L 386.90 734.90 L 388.40 731.90 L 390.20 729.20 L 392.40 726.80 L 394.80 724.70 L 397.50 722.90 L 400.40 721.40 L 403.50 720.30 L 406.80 719.60 L 410.30 719.40 Z" fill="#88b6e5" fill-rule="nonzero" group-id="14,42" node-id="199" stroke="none" target-height="50.799988" target-width="141.00003" target-x="384.9" target-y="719.4"></path></g></g><g node-id="327"><g node-id="355"><path d="M 627.20 502.00 L 627.00 503.60 L 626.20 505.30 L 625.00 507.00 L 623.00 508.90 L 616.80 512.70 L 612.50 514.70 L 600.60 518.80 L 592.00 521.10 L 570.10 525.50 L 545.20 529.20 L 530.70 530.80 L 500.70 533.20 L 467.60 534.80 L 432.30 535.30 L 397.00 534.80 L 363.90 533.20 L 333.90 530.80 L 319.40 529.20 L 294.50 525.50 L 272.60 521.10 L 264.00 518.80 L 252.10 514.70 L 247.80 512.70 L 241.60 508.90 L 239.60 507.00 L 238.40 505.30 L 237.60 503.60 L 237.40 502.00 L 237.60 500.40 L 238.40 498.70 L 239.60 497.00 L 241.60 495.10 L 244.40 493.10 L 252.10 489.30 L 264.00 485.20 L 272.60 482.90 L 294.50 478.50 L 319.40 474.80 L 333.90 473.20 L 363.90 470.80 L 397.00 469.20 L 432.30 468.70 L 467.60 469.20 L 500.70 470.80 L 530.70 473.20 L 545.20 474.80 L 570.10 478.50 L 592.00 482.90 L 600.60 485.20 L 612.50 489.30 L 616.80 491.30 L 623.00 495.10 L 625.00 497.00 L 626.20 498.70 L 627.00 500.40 L 627.20 502.00 Z" fill="#d1dde9" fill-rule="nonzero" group-id="15,43" node-id="207" stroke="none" target-height="66.599976" target-width="389.80002" target-x="237.4" target-y="468.7"></path></g></g><g node-id="328"><g node-id="356"><path d="M 62.20 317.40 L 60.90 320.00 L 60.20 322.70 L 59.90 325.40 L 60.10 328.10 L 60.80 330.70 L 61.90 333.20 L 63.40 335.50 L 65.30 337.50 L 67.60 339.20 L 78.40 345.30 L 89.30 350.70 L 100.20 355.60 L 111.30 359.80 L 122.60 363.60 L 134.00 366.90 L 145.40 369.60 L 156.90 371.90 L 168.50 373.80 L 180.10 375.30 L 203.40 377.30 L 219.00 377.80 L 234.40 377.90 L 249.80 377.60 L 252.70 377.20 L 255.30 376.40 L 257.80 375.20 L 260.00 373.50 L 261.80 371.60 L 263.30 369.30 L 264.40 366.80 L 265.00 364.10 L 265.20 361.20 L 264.80 358.30 L 264.00 355.70 L 262.80 353.20 L 261.10 351.00 L 259.20 349.20 L 256.90 347.70 L 254.40 346.60 L 251.70 346.00 L 248.80 345.80 L 234.00 346.10 L 219.50 346.00 L 205.00 345.50 L 190.70 344.40 L 176.50 342.80 L 162.60 340.60 L 152.30 338.50 L 142.10 336.10 L 132.00 333.20 L 122.10 329.90 L 112.30 326.10 L 102.80 321.90 L 93.30 317.20 L 84.00 311.90 L 81.40 310.60 L 78.70 309.90 L 76.00 309.70 L 73.30 309.90 L 70.70 310.50 L 68.20 311.60 L 65.90 313.20 L 63.90 315.10 L 62.20 317.40 Z" fill="#88b6e5" fill-rule="evenodd" group-id="16,44" node-id="215" stroke="none" target-height="68.19998" target-width="205.30002" target-x="59.9" target-y="309.7"></path></g></g><g node-id="329"><g node-id="357"><path d="M 498.90 499.90 L 337.40 499.90 L 330.60 499.60 L 324.10 498.70 L 317.60 497.20 L 311.30 495.20 L 305.20 492.70 L 299.30 489.60 L 293.50 486.10 L 287.90 482.00 L 282.60 477.60 L 277.50 472.70 L 272.70 467.30 L 268.00 461.50 L 263.80 455.50 L 259.80 449.00 L 256.10 442.20 L 252.70 435.00 L 249.70 427.60 L 247.00 420.00 L 244.70 412.00 L 242.80 403.70 L 241.30 395.40 L 240.20 386.80 L 239.50 378.00 L 239.30 368.90 L 239.50 359.80 L 240.20 351.00 L 241.30 342.40 L 242.80 334.10 L 244.70 325.70 L 247.00 317.70 L 249.70 310.10 L 252.70 302.70 L 256.10 295.50 L 259.80 288.70 L 263.80 282.20 L 268.00 276.20 L 272.70 270.40 L 277.50 265.00 L 282.60 260.10 L 287.90 255.70 L 293.50 251.60 L 299.30 248.10 L 305.20 245.00 L 311.30 242.50 L 317.60 240.50 L 324.10 239.00 L 330.60 238.10 L 337.40 237.80 L 498.90 237.80 L 492.60 238.10 L 486.50 238.80 L 480.50 240.10 L 474.60 241.80 L 468.90 244.00 L 463.30 246.70 L 457.90 249.80 L 452.60 253.30 L 447.50 257.20 L 442.70 261.40 L 438.00 266.10 L 429.30 276.50 L 421.60 288.20 L 418.10 294.60 L 414.10 303.40 L 410.60 312.40 L 407.60 321.50 L 405.20 330.80 L 403.30 340.20 L 401.90 349.70 L 401.10 359.30 L 400.80 368.90 L 401.10 378.50 L 401.90 388.10 L 403.30 397.60 L 405.20 407.00 L 407.60 416.30 L 410.60 425.40 L 414.10 434.40 L 418.10 443.20 L 421.60 449.60 L 429.30 461.20 L 438.00 471.60 L 442.70 476.30 L 447.50 480.50 L 452.60 484.40 L 457.90 488.00 L 463.30 491.00 L 468.90 493.70 L 474.60 495.90 L 480.50 497.60 L 486.50 498.90 L 492.60 499.60 L 498.90 499.90 Z" fill="#d7ebff" fill-rule="nonzero" group-id="17,45" node-id="223" stroke="none" target-height="262.09998" target-width="259.59998" target-x="239.3" target-y="237.8"></path></g></g><g node-id="330"><g node-id="358"><path d="M 382.70 285.90 L 386.60 278.80 L 390.80 272.10 L 395.20 265.80 L 399.80 259.90 L 404.90 254.20 L 410.10 249.00 L 415.50 244.30 L 421.10 239.90 L 427.00 236.00 L 433.10 232.50 L 439.30 229.60 L 445.70 227.10 L 452.30 225.20 L 459.00 223.80 L 465.80 222.90 L 472.80 222.60 L 508.90 222.60 L 514.90 222.80 L 520.90 223.50 L 526.70 224.50 L 532.40 226.00 L 538.00 227.80 L 544.80 230.70 L 551.40 234.10 L 557.80 238.00 L 564.10 242.60 L 570.00 247.50 L 575.70 253.00 L 581.10 258.90 L 586.20 265.40 L 591.00 272.20 L 595.40 279.40 L 599.50 287.00 L 603.40 295.00 L 606.70 303.20 L 609.70 311.80 L 612.20 320.70 L 614.40 329.90 L 616.10 339.30 L 617.30 348.80 L 618.00 358.70 L 618.30 368.80 L 618.00 378.90 L 617.30 388.80 L 616.10 398.30 L 614.40 407.70 L 612.20 416.90 L 609.70 425.80 L 606.70 434.40 L 603.40 442.60 L 599.50 450.60 L 595.40 458.20 L 591.00 465.40 L 586.20 472.20 L 581.10 478.70 L 575.70 484.60 L 570.00 490.10 L 564.10 495.00 L 557.80 499.60 L 551.40 503.50 L 544.80 506.90 L 538.00 509.80 L 532.40 511.60 L 526.70 513.10 L 520.90 514.10 L 514.90 514.80 L 508.90 515.00 L 472.70 515.00 L 465.70 514.70 L 458.90 513.80 L 452.20 512.40 L 445.60 510.50 L 439.20 508.00 L 433.00 505.10 L 426.90 501.70 L 421.00 497.70 L 415.40 493.40 L 410.00 488.60 L 404.80 483.40 L 399.70 477.70 L 395.10 471.80 L 390.70 465.50 L 386.50 458.80 L 382.60 451.70 L 378.10 441.90 L 374.20 431.90 L 370.90 421.70 L 368.20 411.30 L 366.10 400.80 L 364.50 390.20 L 363.60 379.60 L 363.30 368.80 L 363.60 358.00 L 364.50 347.40 L 366.10 336.80 L 368.20 326.30 L 370.90 315.90 L 374.20 305.70 L 378.10 295.70 L 382.70 285.90 Z" fill="#4c96ec" fill-rule="nonzero" group-id="18,46" node-id="231" stroke="none" target-height="292.4" target-width="255" target-x="363.3" target-y="222.6"></path></g></g><g node-id="331"><g node-id="359"><path d="M 419.60 285.90 L 423.60 278.80 L 427.80 272.10 L 432.30 265.80 L 437.10 259.90 L 442.20 254.20 L 447.50 249.00 L 453.00 244.30 L 458.70 240.00 L 464.80 236.00 L 470.90 232.60 L 477.30 229.60 L 483.80 227.20 L 490.40 225.20 L 497.20 223.80 L 504.20 222.90 L 511.30 222.60 L 517.50 222.80 L 523.50 223.50 L 529.40 224.50 L 535.20 226.00 L 540.90 227.80 L 547.90 230.70 L 554.60 234.10 L 561.20 238.00 L 567.60 242.60 L 573.60 247.50 L 579.40 253.00 L 584.90 258.90 L 590.10 265.40 L 595.00 272.20 L 599.50 279.40 L 603.70 287.00 L 607.60 295.00 L 611.00 303.20 L 614.00 311.80 L 616.60 320.70 L 618.80 329.90 L 620.50 339.30 L 621.80 348.80 L 622.50 358.70 L 622.80 368.80 L 622.50 378.90 L 621.80 388.80 L 620.50 398.30 L 618.80 407.60 L 616.60 416.90 L 614.00 425.80 L 611.00 434.30 L 607.60 442.50 L 603.70 450.60 L 599.50 458.20 L 595.00 465.40 L 590.10 472.10 L 584.90 478.60 L 579.40 484.60 L 573.60 490.00 L 567.60 495.00 L 561.20 499.50 L 554.60 503.50 L 547.90 506.90 L 540.90 509.70 L 535.20 511.60 L 529.40 513.10 L 523.50 514.10 L 517.50 514.80 L 511.30 515.00 L 504.20 514.70 L 497.20 513.80 L 490.40 512.40 L 483.70 510.50 L 477.20 508.00 L 470.90 505.10 L 464.70 501.70 L 458.70 497.70 L 452.90 493.40 L 447.40 488.60 L 442.10 483.40 L 437.00 477.70 L 432.30 471.80 L 427.80 465.50 L 423.60 458.80 L 419.60 451.70 L 415.00 441.90 L 411.00 431.90 L 407.70 421.70 L 404.90 411.30 L 402.70 400.80 L 401.20 390.20 L 400.20 379.60 L 399.90 368.80 L 400.20 358.00 L 401.20 347.40 L 402.80 336.80 L 405.00 326.30 L 407.70 315.90 L 411.10 305.80 L 415.00 295.80 L 419.60 285.90 Z" fill="#aad5f9" fill-rule="nonzero" group-id="19,47" node-id="239" stroke="none" target-height="292.4" target-width="222.9" target-x="399.9" target-y="222.6"></path></g></g><g node-id="332"><g node-id="360"><path d="M 494.80 341.90 L 499.00 347.80 L 504.00 352.40 L 509.90 355.70 L 513.00 356.80 L 516.30 357.50 L 519.70 357.70 L 532.80 357.50 L 538.70 356.00 L 541.50 354.80 L 544.90 352.70 L 548.10 350.10 L 551.10 347.00 L 553.60 343.50 L 555.70 339.60 L 557.50 335.30 L 558.80 330.90 L 559.60 326.10 L 559.90 321.10 L 559.60 316.00 L 558.80 311.30 L 557.50 306.80 L 555.70 302.60 L 553.60 298.70 L 551.10 295.20 L 548.10 292.10 L 544.90 289.50 L 541.50 287.40 L 535.80 285.20 L 529.70 284.50 L 516.30 284.70 L 513.00 285.40 L 509.90 286.50 L 506.90 288.00 L 501.40 292.00 L 496.80 297.30 L 494.80 300.40 L 493.20 303.70 L 490.80 310.50 L 489.70 317.60 L 489.60 324.70 L 490.00 328.30 L 491.80 335.20 L 494.80 341.90 Z" fill="#88b6e5" fill-rule="nonzero" group-id="20,48" node-id="247" stroke="none" target-height="73.20001" target-width="70.30002" target-x="489.6" target-y="284.5"></path></g></g><g node-id="333"><g node-id="361"><path d="M 494.80 440.50 L 499.00 446.40 L 504.00 451.00 L 509.90 454.30 L 513.00 455.40 L 516.30 456.10 L 519.70 456.30 L 532.80 456.10 L 538.70 454.60 L 541.50 453.40 L 544.90 451.30 L 548.10 448.70 L 551.10 445.60 L 553.60 442.10 L 555.70 438.20 L 557.50 433.90 L 558.80 429.50 L 559.60 424.70 L 559.90 419.70 L 559.60 414.60 L 558.80 409.90 L 557.50 405.40 L 555.70 401.20 L 553.60 397.30 L 551.10 393.80 L 548.10 390.70 L 544.90 388.10 L 541.50 386.00 L 535.80 383.80 L 529.70 383.10 L 516.30 383.30 L 513.00 384.00 L 509.90 385.10 L 506.90 386.60 L 501.40 390.60 L 496.80 395.90 L 494.80 399.00 L 493.20 402.30 L 490.80 409.10 L 489.70 416.20 L 489.60 423.30 L 490.00 426.90 L 491.80 433.90 L 494.80 440.50 Z" fill="#88b6e5" fill-rule="nonzero" group-id="21,49" node-id="255" stroke="none" target-height="73.19998" target-width="70.30002" target-x="489.6" target-y="383.1"></path></g></g><g node-id="334"><g node-id="362"><path d="M 505.90 341.90 L 510.00 347.80 L 514.90 352.40 L 520.60 355.70 L 523.70 356.80 L 526.90 357.50 L 530.20 357.70 L 534.20 357.30 L 538.00 356.40 L 541.70 354.80 L 545.10 352.70 L 548.20 350.10 L 551.10 347.00 L 553.60 343.50 L 555.70 339.60 L 557.50 335.30 L 558.70 330.90 L 559.50 326.10 L 559.80 321.10 L 559.50 316.00 L 558.70 311.30 L 557.50 306.80 L 555.70 302.60 L 553.60 298.70 L 551.20 295.20 L 548.30 292.10 L 545.10 289.50 L 541.70 287.40 L 536.20 285.20 L 530.20 284.50 L 526.90 284.70 L 523.70 285.40 L 520.60 286.50 L 514.90 289.80 L 510.00 294.50 L 505.90 300.40 L 503.00 307.10 L 501.30 314.00 L 500.70 321.20 L 501.30 328.30 L 502.00 331.80 L 503.60 336.90 L 505.90 341.90 Z" fill="#dee6ff" fill-rule="nonzero" group-id="22,50" node-id="263" stroke="none" target-height="73.20001" target-width="59.099976" target-x="500.7" target-y="284.5"></path></g></g><g node-id="335"><g node-id="363"><path d="M 505.90 440.50 L 510.00 446.40 L 514.90 451.00 L 520.60 454.30 L 523.70 455.40 L 526.90 456.10 L 530.20 456.30 L 534.20 455.90 L 538.00 455.00 L 541.70 453.40 L 545.10 451.30 L 548.20 448.70 L 551.10 445.60 L 553.60 442.10 L 555.70 438.20 L 557.50 433.90 L 558.70 429.50 L 559.50 424.70 L 559.80 419.70 L 559.50 414.60 L 558.70 409.90 L 557.50 405.40 L 555.70 401.20 L 553.60 397.30 L 551.20 393.80 L 548.30 390.70 L 545.10 388.10 L 541.70 386.00 L 536.20 383.80 L 530.20 383.10 L 526.90 383.30 L 523.70 384.00 L 520.60 385.10 L 514.90 388.40 L 510.00 393.10 L 505.90 399.00 L 503.00 405.70 L 501.30 412.60 L 500.70 419.80 L 501.30 426.90 L 503.00 433.90 L 505.90 440.50 Z" fill="#dee6ff" fill-rule="nonzero" group-id="23,51" node-id="271" stroke="none" target-height="73.19998" target-width="59.099976" target-x="500.7" target-y="383.1"></path></g></g><g node-id="336"><g node-id="364"><path d="M 624.60 295.80 L 534.40 295.80 L 530.90 296.00 L 527.60 296.70 L 524.50 297.80 L 521.60 299.30 L 518.90 301.10 L 516.50 303.30 L 514.30 305.70 L 512.50 308.40 L 511.00 311.30 L 509.90 314.40 L 509.20 317.70 L 509.00 321.20 L 509.20 324.70 L 509.90 328.00 L 511.00 331.10 L 512.50 334.00 L 514.30 336.70 L 516.50 339.20 L 518.90 341.30 L 521.60 343.10 L 524.50 344.60 L 527.60 345.70 L 530.90 346.40 L 534.40 346.60 L 624.60 346.60 L 628.10 346.40 L 631.40 345.70 L 634.50 344.60 L 637.40 343.10 L 640.10 341.30 L 642.60 339.20 L 644.70 336.70 L 646.50 334.00 L 648.00 331.10 L 649.10 328.00 L 649.80 324.70 L 650.00 321.20 L 649.80 317.70 L 649.10 314.40 L 648.00 311.30 L 646.50 308.30 L 644.70 305.60 L 642.60 303.20 L 640.10 301.10 L 637.40 299.30 L 634.50 297.80 L 631.40 296.70 L 628.10 296.00 L 624.60 295.80 Z" fill="#88b6e5" fill-rule="nonzero" group-id="24,52" node-id="279" stroke="none" target-height="50.80002" target-width="141" target-x="509" target-y="295.8"></path></g></g><g node-id="337"><g node-id="365"><path d="M 624.60 394.40 L 534.40 394.40 L 530.90 394.60 L 527.60 395.30 L 524.50 396.40 L 521.60 397.90 L 518.90 399.70 L 516.50 401.90 L 514.30 404.30 L 512.50 407.00 L 511.00 409.90 L 509.90 413.00 L 509.20 416.30 L 509.00 419.80 L 509.20 423.30 L 509.90 426.60 L 511.00 429.70 L 512.50 432.60 L 514.30 435.30 L 516.50 437.80 L 518.90 439.90 L 521.60 441.70 L 524.50 443.20 L 527.60 444.30 L 530.90 445.00 L 534.40 445.20 L 624.60 445.20 L 628.10 445.00 L 631.40 444.30 L 634.50 443.20 L 637.40 441.70 L 640.10 439.90 L 642.60 437.80 L 644.70 435.30 L 646.50 432.60 L 648.00 429.70 L 649.10 426.60 L 649.80 423.30 L 650.00 419.80 L 649.80 416.30 L 649.10 413.00 L 648.00 409.90 L 646.50 406.90 L 644.70 404.20 L 642.60 401.80 L 640.10 399.70 L 637.40 397.90 L 634.50 396.40 L 631.40 395.30 L 628.10 394.60 L 624.60 394.40 Z" fill="#88b6e5" fill-rule="nonzero" group-id="25,53" node-id="287" stroke="none" target-height="50.80002" target-width="141" target-x="509" target-y="394.4"></path></g></g><g node-id="338"><g node-id="366"><path d="M 852.10 244.50 L 850.10 243.40 L 849.30 242.40 L 848.60 240.10 L 848.70 238.90 L 857.00 211.90 L 857.70 211.00 L 859.80 209.70 L 862.20 209.60 L 863.30 210.00 L 865.00 211.70 L 865.70 214.00 L 865.60 215.20 L 857.10 242.90 L 856.40 244.00 L 854.50 245.00 L 852.10 244.50 Z" fill="#d5ddea" fill-rule="nonzero" group-id="26,54" node-id="295" stroke="none" target-height="35.399994" target-width="17.100037" target-x="848.6" target-y="209.6"></path></g></g><g node-id="339"><g node-id="367"><path d="M 822.30 252.10 L 820.10 251.90 L 819.20 251.30 L 800.80 229.80 L 800.00 228.20 L 799.70 226.40 L 799.80 225.20 L 801.20 223.00 L 802.20 222.40 L 804.60 222.00 L 806.80 222.80 L 825.00 244.30 L 825.80 245.90 L 826.10 247.70 L 825.90 248.90 L 824.50 251.10 L 822.30 252.10 Z" fill="#d5ddea" fill-rule="nonzero" group-id="27,55" node-id="303" stroke="none" target-height="30.100006" target-width="26.399963" target-x="799.7" target-y="222"></path></g></g><path d="M 880.90 264.00 L 879.50 262.20 L 879.60 260.40 L 880.30 258.80 L 882.00 257.10 L 909.20 250.20 L 911.00 250.30 L 912.60 251.00 L 914.30 252.70 L 914.80 254.00 L 914.70 255.80 L 914.00 257.40 L 912.30 259.10 L 885.10 266.00 L 880.90 264.00 Z" fill="#d5ddea" fill-rule="nonzero" group-id="28,56" node-id="311" stroke="none" target-height="15.800003" target-width="35.299988" target-x="879.5" target-y="250.2"></path></svg>