<?xml version="1.0" standalone="no"?><!DOCTYPE svg PUBLIC "-//W3C//DTD SVG 1.1//EN" "http://www.w3.org/Graphics/SVG/1.1/DTD/svg11.dtd"><svg t="1747183621000" class="icon" viewBox="0 0 1024 1024" version="1.1" xmlns="http://www.w3.org/2000/svg" p-id="1527" xmlns:xlink="http://www.w3.org/1999/xlink" width="200" height="200"><path d="M551.146667 419.605333a63.893333 63.893333 0 0 1-63.829334 63.808c-35.178667 0-63.829333-28.629333-63.829333-63.808s28.629333-63.808 63.829333-63.808a63.893333 63.893333 0 0 1 63.829334 63.808zM526.677333 43.306667a494.805333 494.805333 0 0 0-11.221333-0.128c-255.808 0-468.629333 205.418667-474.432 457.898666-2.88 125.226667 43.776 244.010667 131.349333 334.613334 87.616 90.602667 205.802667 142.101333 332.778667 145.024 3.712 0.085333 7.402667 0.128 11.093333 0.128 99.264 0 195.114667-30.954667 278.293334-90.538667 5.269333-5.056 8.512-12.842667 8.725333-20.778667 0.384-17.216-13.333333-31.552-31.381333-32.021333-8.704 0-16.170667 3.050667-21.248 8.533333-70.805333 48.533333-151.957333 74.218667-234.773334 74.218667l-9.301333-0.106667c-109.397333-2.517333-211.242667-46.890667-286.762667-125.013333-75.456-78.08-115.626667-180.501333-113.152-288.405333 5.034667-221.397333 192.917333-400.917333 418.432-395.669334 109.418667 2.517333 211.242667 46.912 286.741334 125.034667 75.456 78.058667 115.669333 180.48 113.173333 288.405333-1.557333 68.16-18.581333 131.349333-50.538667 187.84l-1.514666 2.837334-0.064 2.709333a23.061333 23.061333 0 0 0-0.96 5.674667c-0.384 17.216 13.312 31.552 31.36 32.021333 13.205333 0 24.448-7.552 28.778666-18.602667 36.586667-68.032 56-140.032 57.706667-214.058666 5.909333-258.474667-201.834667-473.621333-463.082667-479.616z m304.064 469.781333c0 37.205333-23.488 71.744-64.384 94.784l-325.738666 184.810667c-21.525333 13.098667-43.989333 19.861333-66.496 19.861333-50.154667 0-100.757333-35.434667-100.757334-114.624V327.104c0-78.741333 52.224-114.624 100.757334-114.624 20.416 0 42.752 6.677333 66.410666 19.818667l325.866667 184.874666c40.853333 22.954667 64.298667 57.92 64.341333 95.914667zM500.693333 608.085333a28.394667 28.394667 0 1 0-28.394666 28.416 28.373333 28.373333 0 0 0 28.394666-28.416z m79.829334 0a28.48 28.48 0 0 0-56.917334 0 28.458667 28.458667 0 1 0 56.917334 0z m13.290666-188.48a106.602667 106.602667 0 0 0-106.496-106.474666 106.624 106.624 0 0 0-106.496 106.474666c0 27.562667 10.794667 52.48 28.053334 71.402667l-0.896-0.448c-69.653333 23.104-109.76 89.749333-92.8 170.602667a22.4 22.4 0 0 0 26.325333 17.216 22.186667 22.186667 0 0 0 17.152-26.346667 105.664 105.664 0 0 1 81.557333-124.885333l2.944-0.618667c13.930667-2.922667 21.077333-3.456 32.554667-1.088l-1.28-0.661333c4.288 0.533333 8.490667 1.344 12.906667 1.344a106.666667 106.666667 0 0 0 106.474666-106.517334z m65.472 188.48a28.394667 28.394667 0 1 0-28.394666 28.416 28.373333 28.373333 0 0 0 28.394666-28.416z" fill="#347DFF" p-id="1528"></path></svg>