<?xml version="1.0" standalone="no"?><!DOCTYPE svg PUBLIC "-//W3C//DTD SVG 1.1//EN" "http://www.w3.org/Graphics/SVG/1.1/DTD/svg11.dtd"><svg t="1751185829978" class="icon" viewBox="0 0 4379 1024" version="1.1" xmlns="http://www.w3.org/2000/svg" p-id="10125" xmlns:xlink="http://www.w3.org/1999/xlink" width="855.2734375" height="200"><path d="M275.094588 272.263529V614.4l-118.241882 68.246588v-342.13647z" fill="#12CE8A" p-id="10126"></path><path d="M452.427294 170.706824l88.064 51.2 117.458824 68.246588 88.124235 51.2L627.832471 409.6l-88.064-51.2-59.151059 34.153412 88.124235 51.2L450.499765 512l-88.124236-51.2-117.458823-68.246588-88.064-51.2 118.241882-68.306824 88.064 51.260236 59.151059-34.153412-88.124235-51.2zM452.427294 512l88.064 51.2 117.458824 68.246588 88.124235 51.2-118.241882 68.246588-88.064-51.2-59.151059 34.153412 88.124235 51.2-118.241882 68.246588-88.124236-51.2-117.458823-68.246588-88.064-51.2L275.094588 614.4l88.064 51.2 59.151059-34.153412-88.124235-51.2z" fill="#3071EA" p-id="10127"></path><path d="M746.074353 341.353412l1.024 341.293176-118.241882 68.246588-1.024-341.293176z" fill="#12CE8A" p-id="10128"></path><path d="M1125.074824 509.289412c-59.632941-14.878118-102.219294-39.755294-127.819295-74.511059-25.238588 35.900235-71.077647 62.283294-137.577411 79.088941v-30.358588c53.850353-19.877647 87.883294-47.405176 102.038588-82.522353h-102.580706v-31.503059h110.592c1.505882-8.011294 2.288941-17.769412 2.288941-29.214118v-32.105411h-37.827765c-16.805647 15.661176-42.405647 26.744471-76.8 33.249882V315.030588c18.733176-8.432941 32.647529-17.769412 41.86353-28.069647 9.517176-11.083294 16.263529-26.142118 20.058353-45.296941h49.874823c-2.650353 12.589176-6.505412 24.094118-11.444706 34.394353h153.6v32.105412h-86.558117v22.949647c0 12.227765-0.963765 25.057882-2.891294 38.430117h103.725176v31.503059H1027.011765c20.239059 36.321882 52.886588 62.102588 98.002823 77.402353l0.060236 30.840471z m-201.185883 245.338353v-236.122353h384.602353v163.900235c0 25.6-5.722353 43.911529-17.167059 55.055059-11.866353 11.444706-31.141647 17.167059-57.886117 17.167059h-309.549177z m55.597177-198.896941v63.066352H1252.894118V555.730824h-273.408z m0 161.611294h240.700235c11.866353 0 20.239059-2.650353 25.238588-8.011294 4.939294-5.360941 7.469176-14.516706 7.469177-27.52753v-28.672h-273.408v64.210824z m168.478117-240.158118V274.311529h201.185883v138.11953c0 22.166588-5.180235 38.430118-15.480471 48.730353-10.721882 10.721882-27.708235 16.022588-51.019294 16.022588h-134.686118z m51.621647-34.936471h67.041883c11.083294 0 19.094588-2.650353 24.094117-8.011294 4.577882-4.939294 6.866824-13.552941 6.866824-25.780706V309.308235h-98.002824v132.939294zM1433.961412 744.869647c17.950118-33.611294 31.141647-70.113882 39.574588-109.447529h45.296941c-8.011294 42.044235-19.094588 78.546824-33.249882 109.447529h-51.621647z m12.589176-444.777412v-29.214117h91.136v-26.383059h51.019294v26.383059h86.558118v29.214117h-86.558118v32.64753h80.233412v29.81647h-80.233412v34.394353h89.389177v29.214118h-89.389177v32.647529h196.608v-32.105411h-88.847058V397.552941h88.847058v-34.93647h-80.233411v-29.816471h80.233411v-32.647529h-86.558117v-29.214118h86.558117V244.555294h51.019294v26.383059h92.280471v29.214118h-92.280471v32.647529h80.233412v29.816471h-80.233412V397.552941h96.858353v29.214118h-96.858353v32.105412h54.994824v88.244705c0 24.455529-5.180235 42.044235-15.480471 52.705883-10.300235 10.721882-27.346824 16.022588-51.019294 16.022588h-355.328V585.487059h335.269647c11.083294 0 19.094588-2.469647 24.094118-7.469177 4.939294-4.939294 7.469176-13.191529 7.469176-24.636235v-4.035765H1488.414118v-26.383058h347.919058v-34.936471h-363.941647v-29.214118h65.355295v-32.647529h-100.894118V396.950588h100.894118v-34.394353h-80.233412v-29.81647h80.233412v-32.64753h-91.196236z m179.440941 458.511059c-25.961412 0-44.513882-5.360941-55.597176-16.022588-11.083294-10.721882-16.624941-28.852706-16.624941-54.452706v-52.705882h53.850353v45.296941c0 16.022588 3.252706 27.105882 9.758117 33.249882 6.083765 5.722353 16.986353 8.613647 32.64753 8.613647h107.760941c13.733647 0 23.491765-2.650353 29.214118-8.011294 5.722353-5.360941 8.613647-13.914353 8.613647-25.780706v-13.191529h43.550117v14.878117c0 24.455529-5.360941 42.044235-16.022588 52.705883-10.300235 10.300235-27.708235 15.480471-52.163765 15.48047h-144.986353z m67.584-64.752941c-4.216471-21.022118-10.541176-40.478118-18.913882-58.428235h48.730353c11.083294 19.456 19.094588 38.972235 24.094118 58.428235h-53.910589z m194.861177 51.019294c-5.722353-34.755765-16.986353-71.258353-33.792-109.447529h46.441412c19.094588 37.466353 32.286118 73.908706 39.574588 109.447529h-52.224zM2001.92 764.928v-43.008c12.227765-18.733176 20.239059-37.044706 24.094118-54.994824 4.216471-19.094588 6.324706-48.549647 6.324706-88.244705V268.047059h161.069176v429.296941c0 21.022118-4.758588 36.080941-14.336 45.296941-9.155765 8.794353-24.455529 13.191529-45.839059 13.19153h-34.93647v-35.538824h25.238588c8.011294 0 13.733647-1.927529 17.167059-5.722353 3.433412-3.855059 5.180235-10.300235 5.180235-19.516235V577.536H2080.527059c-0.361412 47.405176-6.505412 84.630588-18.31153 111.736471-11.203765 25.6-31.262118 50.838588-60.295529 75.655529z m78.546824-460.197647v99.749647h65.355294V304.730353h-65.355294z m0 135.228235v101.436236h65.355294V439.958588h-65.355294z m224.677647 322.078118v-41.261177c27.888941-21.022118 49.633882-40.478118 65.355294-58.428235-29.455059-34.032941-52.344471-82.160941-68.788706-144.444235h50.416941c12.227765 43.911529 27.888941 79.691294 46.983529 107.158588 20.239059-32.888471 34.936471-76.619294 44.152471-131.252706h-152.997647v269.974588h-54.994824V270.878118h254.494118V349.967059c0 24.816941-5.180235 42.224941-15.480471 52.163765-10.300235 9.938824-28.672 14.878118-55.055058 14.878117h-59.030589v-36.683294h42.405647c11.866353 0 20.058353-2.288941 24.636236-6.866823 4.577882-4.577882 6.866824-13.010824 6.866823-25.238589v-38.972235h-143.841882V455.981176h205.763765v37.225412c-12.227765 71.077647-34.575059 127.036235-67.041883 167.936 20.239059 20.239059 47.947294 40.899765 83.124706 61.921883v38.430117c-47.766588-22.889412-84.811294-46.019765-111.194353-69.330823-23.371294 22.106353-55.296 45.417412-95.774117 69.872941zM3092.058353 510.433882c-113.844706-13.010824-200.583529-29.575529-260.216471-49.874823-57.705412 19.877647-143.480471 36.864-257.325176 51.019294v-33.792c79.450353-11.444706 145.167059-25.780706 197.150118-43.008-35.177412-17.588706-71.077647-43.730824-107.760942-78.546824-21.383529 8.011294-48.368941 15.299765-80.835764 21.805177v-30.358588c37.466353-13.010824 66.499765-26.925176 87.100235-41.86353 21.383529-15.299765 40.297412-36.080941 56.741647-62.464h66.499765c-8.794353 14.516706-17.588706 27.346824-26.383059 38.430118h271.119059v40.719059c-45.056 49.694118-93.424941 87.341176-144.986353 112.880941 50.055529 15.661176 116.374588 29.214118 198.896941 40.719059v34.334117z m-504.952471 255.638589v-36.080942c54.994824-17.588706 95.171765-37.225412 120.350118-59.030588 25.961412-22.528 42.044235-51.561412 48.128-87.100235h-148.419765v-38.972235h151.853177v-48.128h60.717176v48.128h212.088471v130.108235c0 27.527529-5.963294 47.585882-17.769412 60.175059-11.444706 12.227765-29.997176 18.371765-55.597176 18.371764h-74.511059v-39.574588h51.561412c12.950588 0 22.166588-2.891294 27.527529-8.613647 5.722353-6.083765 8.613647-15.480471 8.613647-28.069647V583.860706h-155.888941c-7.288471 48.911059-28.069647 87.100235-62.464 114.627765-34.334118 27.105882-89.750588 49.633882-166.189177 67.584z m376.530824-445.921883h-234.435765c-13.010824 10.300235-27.105882 19.094588-42.405647 26.383059h40.116706c34.032941 27.105882 68.788706 48.730353 104.327529 64.752941 46.622118-21.383529 90.774588-51.742118 132.397177-91.136zM3173.978353 309.850353v-41.261177h467.666823v41.261177h-203.474823v225.822118h226.364235v40.719058h-226.364235v189.680942h-63.066353V576.391529h-226.966588v-40.719058h226.966588V309.850353h-201.125647z m75.655529 175.947294c-19.094588-35.900235-34.032941-78.546824-44.694588-127.819294h60.717177c5.722353 43.188706 18.130824 85.775059 37.225411 127.819294h-53.248z m260.216471 0c19.094588-42.044235 31.503059-84.630588 37.225412-127.819294h60.777411c-10.721882 49.272471-25.6 91.919059-44.694588 127.819294h-53.308235zM4139.188706 313.886118c32.466824 49.694118 60.175059 105.472 83.124706 167.333647h-61.31953c-5.360941-16.805647-9.577412-29.394824-12.589176-37.827765-99.328 11.444706-213.775059 17.167059-343.280941 17.167059h-52.705883v-46.441412c59.994353-55.416471 106.977882-111.736471 141.010824-169.080471h72.222118c-22.949647 37.827765-46.802824 70.475294-71.619765 98.002824-22.528 24.816941-48.911059 48.549647-79.088941 71.077647 129.505882 0.421647 235.339294-3.072 317.500235-10.300235-12.227765-27.527529-28.069647-57.524706-47.585882-89.99153l54.332235 0.060236z m-358.821647 440.139294V515.011765h400.022588v157.635764c0 27.888941-5.903059 48.308706-17.769412 61.31953-12.227765 13.372235-32.286118 20.058353-60.175059 20.058353H3780.367059zM4120.816941 668.611765V556.272941h-280.274823v156.491294h243.591529c24.455529 0 36.683294-14.697412 36.683294-44.15247z" fill="#231815" p-id="10129"></path></svg>