<?xml version="1.0" standalone="no"?><!DOCTYPE svg PUBLIC "-//W3C//DTD SVG 1.1//EN" "http://www.w3.org/Graphics/SVG/1.1/DTD/svg11.dtd"><svg t="1751186131966" class="icon" viewBox="0 0 1024 1024" version="1.1" xmlns="http://www.w3.org/2000/svg" p-id="18593" xmlns:xlink="http://www.w3.org/1999/xlink" width="200" height="200"><path d="M576 416m64 0l320 0q64 0 64 64l0 416q0 64-64 64l-320 0q-64 0-64-64l0-416q0-64 64-64Z" fill="#004AFF" p-id="18594"></path><path d="M0 0m64 0l672 0q64 0 64 64l0 896q0 64-64 64l-672 0q-64 0-64-64l0-896q0-64 64-64Z" fill="#D1E4FC" p-id="18595"></path><path d="M576 416m64 0l320 0q64 0 64 64l0 416q0 64-64 64l-320 0q-64 0-64-64l0-416q0-64 64-64Z" fill="#004AFF" opacity=".24" p-id="18596"></path><path d="M472.8 458.528h38.688v-43.2h9.088a18.592 18.592 0 0 0 18.208-20.48 142.24 142.24 0 0 0-141.056-122.848 144.224 144.224 0 0 0-141.056 122.848 17.408 17.408 0 0 0 18.208 20.48h9.088v43.232h38.656a135.648 135.648 0 0 1-127.392 143.328v65.952h409.6v-65.984a136.288 136.288 0 0 1-131.936-143.328z m-270.72 243.424h386.752v50.048h-386.752z" fill="#FFFFFF" p-id="18597"></path></svg>